<?xml version="1.0" standalone="yes"?>

<svg version="1.1" viewBox="0.0 0.0 782.0 673.0" fill="none" stroke="none" stroke-linecap="square" stroke-miterlimit="10" xmlns="http://www.w3.org/2000/svg" xmlns:xlink="http://www.w3.org/1999/xlink"><clipPath id="p.0"><path d="m0 0l782.0 0l0 673.0l-782.0 0l0 -673.0z" clip-rule="nonzero"></path></clipPath><g clip-path="url(#p.0)"><path fill="#000000" fill-opacity="0.0" d="m0 0l782.08923 0l0 673.43304l-782.08923 0z" fill-rule="nonzero"></path><path shape-rendering="crispEdges" fill="#d5a6bd" d="m20.0 59.160107l54.53018 0l0 41.5958l-54.53018 0l0 -41.5958z" fill-rule="nonzero"></path><path shape-rendering="crispEdges" fill="#d5a6bd" d="m74.53018 59.160107l54.53018 0l0 41.5958l-54.53018 0l0 -41.5958z" fill-rule="nonzero"></path><path shape-rendering="crispEdges" fill="#d5a6bd" d="m129.06036 100.755905l54.53018 0l0 41.196854l-54.53018 0l0 -41.196854z" fill-rule="nonzero"></path><path shape-rendering="crispEdges" fill="#d5a6bd" d="m74.53018 141.95276l54.53018 0l0 41.196854l-54.53018 0l0 -41.196854z" fill-rule="nonzero"></path><path shape-rendering="crispEdges" fill="#d5a6bd" d="m238.12073 141.95276l54.53018 0l0 41.196854l-54.53018 0l0 -41.196854z" fill-rule="nonzero"></path><path shape-rendering="crispEdges" fill="#d5a6bd" d="m20.0 183.14961l54.53018 0l0 41.19684l-54.53018 0l0 -41.19684z" fill-rule="nonzero"></path><path shape-rendering="crispEdges" fill="#d5a6bd" d="m74.53018 183.14961l54.53018 0l0 41.19684l-54.53018 0l0 -41.19684z" fill-rule="nonzero"></path><path shape-rendering="crispEdges" fill="#d5a6bd" d="m129.06036 183.14961l54.53018 0l0 41.19684l-54.53018 0l0 -41.19684z" fill-rule="nonzero"></path><path shape-rendering="crispEdges" fill="#d5a6bd" d="m238.12073 183.14961l54.53018 0l0 41.19684l-54.53018 0l0 -41.19684z" fill-rule="nonzero"></path><path shape-rendering="crispEdges" fill="#d5a6bd" d="m292.6509 183.14961l54.53018 0l0 41.19684l-54.53018 0l0 -41.19684z" fill-rule="nonzero"></path><path stroke="#000000" stroke-width="1.0" stroke-linecap="butt" d="m20.0 58.66142l0 166.18372" fill-rule="nonzero"></path><path stroke="#000000" stroke-width="1.0" stroke-linecap="butt" d="m74.53018 58.66142l0 166.18372" fill-rule="nonzero"></path><path stroke="#000000" stroke-width="1.0" stroke-linecap="butt" d="m129.06036 58.66142l0 166.18372" fill-rule="nonzero"></path><path stroke="#000000" stroke-width="1.0" stroke-linecap="butt" d="m183.59055 58.66142l0 166.18372" fill-rule="nonzero"></path><path stroke="#000000" stroke-width="1.0" stroke-linecap="butt" d="m238.12073 58.66142l0 166.18372" fill-rule="nonzero"></path><path stroke="#000000" stroke-width="1.0" stroke-linecap="butt" d="m292.6509 58.66142l0 166.18372" fill-rule="nonzero"></path><path stroke="#000000" stroke-width="1.0" stroke-linecap="butt" d="m347.1811 58.66142l0 166.18372" fill-rule="nonzero"></path><path stroke="#000000" stroke-width="1.0" stroke-linecap="butt" d="m19.501312 59.160107l328.17847 0" fill-rule="nonzero"></path><path stroke="#000000" stroke-width="1.0" stroke-linecap="butt" d="m19.501312 100.755905l328.17847 0" fill-rule="nonzero"></path><path stroke="#000000" stroke-width="1.0" stroke-linecap="butt" d="m19.501312 141.95276l328.17847 0" fill-rule="nonzero"></path><path stroke="#000000" stroke-width="1.0" stroke-linecap="butt" d="m19.501312 183.14961l328.17847 0" fill-rule="nonzero"></path><path stroke="#000000" stroke-width="1.0" stroke-linecap="butt" d="m19.501312 224.34645l328.17847 0" fill-rule="nonzero"></path><path shape-rendering="crispEdges" fill="#d5a6bd" d="m20.0 270.74408l54.53018 0l0 41.595825l-54.53018 0l0 -41.595825z" fill-rule="nonzero"></path><path shape-rendering="crispEdges" fill="#d5a6bd" d="m74.53018 270.74408l54.53018 0l0 41.595825l-54.53018 0l0 -41.595825z" fill-rule="nonzero"></path><path shape-rendering="crispEdges" fill="#d5a6bd" d="m129.06036 312.3399l54.53018 0l0 41.19684l-54.53018 0l0 -41.19684z" fill-rule="nonzero"></path><path shape-rendering="crispEdges" fill="#d5a6bd" d="m74.53018 353.53674l54.53018 0l0 41.19684l-54.53018 0l0 -41.19684z" fill-rule="nonzero"></path><path shape-rendering="crispEdges" fill="#d5a6bd" d="m238.12073 353.53674l54.53018 0l0 41.19684l-54.53018 0l0 -41.19684z" fill-rule="nonzero"></path><path shape-rendering="crispEdges" fill="#d5a6bd" d="m20.0 394.73358l54.53018 0l0 41.19687l-54.53018 0l0 -41.19687z" fill-rule="nonzero"></path><path shape-rendering="crispEdges" fill="#d5a6bd" d="m74.53018 394.73358l54.53018 0l0 41.19687l-54.53018 0l0 -41.19687z" fill-rule="nonzero"></path><path shape-rendering="crispEdges" fill="#d5a6bd" d="m129.06036 394.73358l54.53018 0l0 41.19687l-54.53018 0l0 -41.19687z" fill-rule="nonzero"></path><path shape-rendering="crispEdges" fill="#d5a6bd" d="m238.12073 394.73358l54.53018 0l0 41.19687l-54.53018 0l0 -41.19687z" fill-rule="nonzero"></path><path shape-rendering="crispEdges" fill="#d5a6bd" d="m292.6509 394.73358l54.53018 0l0 41.19687l-54.53018 0l0 -41.19687z" fill-rule="nonzero"></path><path stroke="#000000" stroke-width="1.0" stroke-linecap="butt" d="m20.0 270.2454l0 166.18375" fill-rule="nonzero"></path><path stroke="#000000" stroke-width="1.0" stroke-linecap="butt" d="m74.53018 270.2454l0 166.18375" fill-rule="nonzero"></path><path stroke="#000000" stroke-width="1.0" stroke-linecap="butt" d="m129.06036 270.2454l0 166.18375" fill-rule="nonzero"></path><path stroke="#000000" stroke-width="1.0" stroke-linecap="butt" d="m183.59055 270.2454l0 166.18375" fill-rule="nonzero"></path><path stroke="#000000" stroke-width="1.0" stroke-linecap="butt" d="m238.12073 270.2454l0 166.18375" fill-rule="nonzero"></path><path stroke="#000000" stroke-width="1.0" stroke-linecap="butt" d="m292.6509 270.2454l0 166.18375" fill-rule="nonzero"></path><path stroke="#000000" stroke-width="1.0" stroke-linecap="butt" d="m347.1811 270.2454l0 166.18375" fill-rule="nonzero"></path><path stroke="#000000" stroke-width="1.0" stroke-linecap="butt" d="m19.501312 270.74408l328.17847 0" fill-rule="nonzero"></path><path stroke="#000000" stroke-width="1.0" stroke-linecap="butt" d="m19.501312 312.3399l328.17847 0" fill-rule="nonzero"></path><path stroke="#000000" stroke-width="1.0" stroke-linecap="butt" d="m19.501312 353.53674l328.17847 0" fill-rule="nonzero"></path><path stroke="#000000" stroke-width="1.0" stroke-linecap="butt" d="m19.501312 394.73358l328.17847 0" fill-rule="nonzero"></path><path stroke="#000000" stroke-width="1.0" stroke-linecap="butt" d="m19.501312 435.93045l328.17847 0" fill-rule="nonzero"></path><path shape-rendering="crispEdges" fill="#ffffff" d="m404.95538 270.74408l54.53018 0l0 41.595825l-54.53018 0l0 -41.595825z" fill-rule="nonzero"></path><path shape-rendering="crispEdges" fill="#ffffff" d="m459.48557 270.74408l54.53018 0l0 41.595825l-54.53018 0l0 -41.595825z" fill-rule="nonzero"></path><path shape-rendering="crispEdges" fill="#a64d79" d="m514.01575 270.74408l54.530212 0l0 41.595825l-54.530212 0l0 -41.595825z" fill-rule="nonzero"></path><path shape-rendering="crispEdges" fill="#a64d79" d="m568.54596 270.74408l54.53015 0l0 41.595825l-54.53015 0l0 -41.595825z" fill-rule="nonzero"></path><path shape-rendering="crispEdges" fill="#a64d79" d="m623.0761 270.74408l54.530212 0l0 41.595825l-54.530212 0l0 -41.595825z" fill-rule="nonzero"></path><path shape-rendering="crispEdges" fill="#a64d79" d="m677.6063 270.74408l54.53015 0l0 41.595825l-54.53015 0l0 -41.595825z" fill-rule="nonzero"></path><path shape-rendering="crispEdges" fill="#a64d79" d="m404.95538 312.3399l54.53018 0l0 41.19684l-54.53018 0l0 -41.19684z" fill-rule="nonzero"></path><path shape-rendering="crispEdges" fill="#a64d79" d="m459.48557 312.3399l54.53018 0l0 41.19684l-54.53018 0l0 -41.19684z" fill-rule="nonzero"></path><path shape-rendering="crispEdges" fill="#ffffff" d="m514.01575 312.3399l54.530212 0l0 41.19684l-54.530212 0l0 -41.19684z" fill-rule="nonzero"></path><path shape-rendering="crispEdges" fill="#ffffff" d="m568.54596 312.3399l54.53015 0l0 41.19684l-54.53015 0l0 -41.19684z" fill-rule="nonzero"></path><path shape-rendering="crispEdges" fill="#ffffff" d="m623.0761 312.3399l54.530212 0l0 41.19684l-54.530212 0l0 -41.19684z" fill-rule="nonzero"></path><path shape-rendering="crispEdges" fill="#a64d79" d="m677.6063 312.3399l54.53015 0l0 41.19684l-54.53015 0l0 -41.19684z" fill-rule="nonzero"></path><path shape-rendering="crispEdges" fill="#a64d79" d="m404.95538 353.53674l54.53018 0l0 41.19684l-54.53018 0l0 -41.19684z" fill-rule="nonzero"></path><path shape-rendering="crispEdges" fill="#ffffff" d="m459.48557 353.53674l54.53018 0l0 41.19684l-54.53018 0l0 -41.19684z" fill-rule="nonzero"></path><path shape-rendering="crispEdges" fill="#a64d79" d="m514.01575 353.53674l54.530212 0l0 41.19684l-54.530212 0l0 -41.19684z" fill-rule="nonzero"></path><path shape-rendering="crispEdges" fill="#a64d79" d="m568.54596 353.53674l54.53015 0l0 41.19684l-54.53015 0l0 -41.19684z" fill-rule="nonzero"></path><path shape-rendering="crispEdges" fill="#ffffff" d="m623.0761 353.53674l54.530212 0l0 41.19684l-54.530212 0l0 -41.19684z" fill-rule="nonzero"></path><path shape-rendering="crispEdges" fill="#a64d79" d="m677.6063 353.53674l54.53015 0l0 41.19684l-54.53015 0l0 -41.19684z" fill-rule="nonzero"></path><path shape-rendering="crispEdges" fill="#ffffff" d="m404.95538 394.73358l54.53018 0l0 41.19687l-54.53018 0l0 -41.19687z" fill-rule="nonzero"></path><path shape-rendering="crispEdges" fill="#ffffff" d="m459.48557 394.73358l54.53018 0l0 41.19687l-54.53018 0l0 -41.19687z" fill-rule="nonzero"></path><path shape-rendering="crispEdges" fill="#ffffff" d="m514.01575 394.73358l54.530212 0l0 41.19687l-54.530212 0l0 -41.19687z" fill-rule="nonzero"></path><path shape-rendering="crispEdges" fill="#a64d79" d="m568.54596 394.73358l54.53015 0l0 41.19687l-54.53015 0l0 -41.19687z" fill-rule="nonzero"></path><path shape-rendering="crispEdges" fill="#ffffff" d="m623.0761 394.73358l54.530212 0l0 41.19687l-54.530212 0l0 -41.19687z" fill-rule="nonzero"></path><path shape-rendering="crispEdges" fill="#ffffff" d="m677.6063 394.73358l54.53015 0l0 41.19687l-54.53015 0l0 -41.19687z" fill-rule="nonzero"></path><path stroke="#000000" stroke-width="1.0" stroke-linecap="butt" d="m404.95538 270.2454l0 166.18375" fill-rule="nonzero"></path><path stroke="#000000" stroke-width="1.0" stroke-linecap="butt" d="m459.48557 270.2454l0 166.18375" fill-rule="nonzero"></path><path stroke="#000000" stroke-width="1.0" stroke-linecap="butt" d="m514.01575 270.2454l0 166.18375" fill-rule="nonzero"></path><path stroke="#000000" stroke-width="1.0" stroke-linecap="butt" d="m568.54596 270.2454l0 166.18375" fill-rule="nonzero"></path><path stroke="#000000" stroke-width="1.0" stroke-linecap="butt" d="m623.0761 270.2454l0 166.18375" fill-rule="nonzero"></path><path stroke="#000000" stroke-width="1.0" stroke-linecap="butt" d="m677.6063 270.2454l0 166.18375" fill-rule="nonzero"></path><path stroke="#000000" stroke-width="1.0" stroke-linecap="butt" d="m732.1365 270.2454l0 166.18375" fill-rule="nonzero"></path><path stroke="#000000" stroke-width="1.0" stroke-linecap="butt" d="m404.4567 270.74408l328.1785 0" fill-rule="nonzero"></path><path stroke="#000000" stroke-width="1.0" stroke-linecap="butt" d="m404.4567 312.3399l328.1785 0" fill-rule="nonzero"></path><path stroke="#000000" stroke-width="1.0" stroke-linecap="butt" d="m404.4567 353.53674l328.1785 0" fill-rule="nonzero"></path><path stroke="#000000" stroke-width="1.0" stroke-linecap="butt" d="m404.4567 394.73358l328.1785 0" fill-rule="nonzero"></path><path stroke="#000000" stroke-width="1.0" stroke-linecap="butt" d="m404.4567 435.93045l328.1785 0" fill-rule="nonzero"></path><path shape-rendering="crispEdges" fill="#d5a6bd" d="m29.03937 482.3281l54.53019 0l0 41.595795l-54.53019 0l0 -41.595795z" fill-rule="nonzero"></path><path shape-rendering="crispEdges" fill="#d5a6bd" d="m83.56956 482.3281l54.530174 0l0 41.595795l-54.530174 0l0 -41.595795z" fill-rule="nonzero"></path><path shape-rendering="crispEdges" fill="#a64d79" d="m138.09973 482.3281l54.530197 0l0 41.595795l-54.530197 0l0 -41.595795z" fill-rule="nonzero"></path><path shape-rendering="crispEdges" fill="#a64d79" d="m192.62993 482.3281l54.53018 0l0 41.595795l-54.53018 0l0 -41.595795z" fill-rule="nonzero"></path><path shape-rendering="crispEdges" fill="#a64d79" d="m247.16011 482.3281l54.530167 0l0 41.595795l-54.530167 0l0 -41.595795z" fill-rule="nonzero"></path><path shape-rendering="crispEdges" fill="#a64d79" d="m301.69028 482.3281l54.53018 0l0 41.595795l-54.53018 0l0 -41.595795z" fill-rule="nonzero"></path><path shape-rendering="crispEdges" fill="#a64d79" d="m29.03937 523.9239l54.53019 0l0 41.19684l-54.53019 0l0 -41.19684z" fill-rule="nonzero"></path><path shape-rendering="crispEdges" fill="#a64d79" d="m83.56956 523.9239l54.530174 0l0 41.19684l-54.530174 0l0 -41.19684z" fill-rule="nonzero"></path><path shape-rendering="crispEdges" fill="#d5a6bd" d="m138.09973 523.9239l54.530197 0l0 41.19684l-54.530197 0l0 -41.19684z" fill-rule="nonzero"></path><path shape-rendering="crispEdges" fill="#a64d79" d="m301.69028 523.9239l54.53018 0l0 41.19684l-54.53018 0l0 -41.19684z" fill-rule="nonzero"></path><path shape-rendering="crispEdges" fill="#a64d79" d="m29.03937 565.1207l54.53019 0l0 41.19684l-54.53019 0l0 -41.19684z" fill-rule="nonzero"></path><path shape-rendering="crispEdges" fill="#d5a6bd" d="m83.56956 565.1207l54.530174 0l0 41.19684l-54.530174 0l0 -41.19684z" fill-rule="nonzero"></path><path shape-rendering="crispEdges" fill="#a64d79" d="m138.09973 565.1207l54.530197 0l0 41.19684l-54.530197 0l0 -41.19684z" fill-rule="nonzero"></path><path shape-rendering="crispEdges" fill="#a64d79" d="m192.62993 565.1207l54.53018 0l0 41.19684l-54.53018 0l0 -41.19684z" fill-rule="nonzero"></path><path shape-rendering="crispEdges" fill="#d5a6bd" d="m247.16011 565.1207l54.530167 0l0 41.19684l-54.530167 0l0 -41.19684z" fill-rule="nonzero"></path><path shape-rendering="crispEdges" fill="#a64d79" d="m301.69028 565.1207l54.53018 0l0 41.19684l-54.53018 0l0 -41.19684z" fill-rule="nonzero"></path><path shape-rendering="crispEdges" fill="#d5a6bd" d="m29.03937 606.31757l54.53019 0l0 41.1969l-54.53019 0l0 -41.1969z" fill-rule="nonzero"></path><path shape-rendering="crispEdges" fill="#d5a6bd" d="m83.56956 606.31757l54.530174 0l0 41.1969l-54.530174 0l0 -41.1969z" fill-rule="nonzero"></path><path shape-rendering="crispEdges" fill="#d5a6bd" d="m138.09973 606.31757l54.530197 0l0 41.1969l-54.530197 0l0 -41.1969z" fill-rule="nonzero"></path><path shape-rendering="crispEdges" fill="#a64d79" d="m192.62993 606.31757l54.53018 0l0 41.1969l-54.53018 0l0 -41.1969z" fill-rule="nonzero"></path><path shape-rendering="crispEdges" fill="#d5a6bd" d="m247.16011 606.31757l54.530167 0l0 41.1969l-54.530167 0l0 -41.1969z" fill-rule="nonzero"></path><path shape-rendering="crispEdges" fill="#d5a6bd" d="m301.69028 606.31757l54.53018 0l0 41.1969l-54.53018 0l0 -41.1969z" fill-rule="nonzero"></path><path stroke="#000000" stroke-width="1.0" stroke-linecap="butt" d="m29.03937 481.8294l0 166.18372" fill-rule="nonzero"></path><path stroke="#000000" stroke-width="1.0" stroke-linecap="butt" d="m83.56956 481.8294l0 166.18372" fill-rule="nonzero"></path><path stroke="#000000" stroke-width="1.0" stroke-linecap="butt" d="m138.09973 481.8294l0 166.18372" fill-rule="nonzero"></path><path stroke="#000000" stroke-width="1.0" stroke-linecap="butt" d="m192.62993 481.8294l0 166.18372" fill-rule="nonzero"></path><path stroke="#000000" stroke-width="1.0" stroke-linecap="butt" d="m247.16011 481.8294l0 166.18372" fill-rule="nonzero"></path><path stroke="#000000" stroke-width="1.0" stroke-linecap="butt" d="m301.69028 481.8294l0 166.18372" fill-rule="nonzero"></path><path stroke="#000000" stroke-width="1.0" stroke-linecap="butt" d="m356.22046 481.8294l0 166.18372" fill-rule="nonzero"></path><path stroke="#000000" stroke-width="1.0" stroke-linecap="butt" d="m28.540682 482.3281l328.17847 0" fill-rule="nonzero"></path><path stroke="#000000" stroke-width="1.0" stroke-linecap="butt" d="m28.540682 523.9239l328.17847 0" fill-rule="nonzero"></path><path stroke="#000000" stroke-width="1.0" stroke-linecap="butt" d="m28.540682 565.1207l328.17847 0" fill-rule="nonzero"></path><path stroke="#000000" stroke-width="1.0" stroke-linecap="butt" d="m28.540682 606.31757l328.17847 0" fill-rule="nonzero"></path><path stroke="#000000" stroke-width="1.0" stroke-linecap="butt" d="m28.540682 647.51447l328.17847 0" fill-rule="nonzero"></path><path fill="#000000" fill-opacity="0.0" d="m17.023623 11.6640415l312.8504 0l0 47.496063l-312.8504 0z" fill-rule="nonzero"></path><path fill="#000000" d="m36.664246 39.15717q0 1.1875 -0.453125 2.09375q-0.4375 0.90625 -1.203125 1.515625q-0.75 0.59375 -1.78125 0.90625q-1.015625 0.296875 -2.171873 0.296875q-0.78125 0 -1.46875 -0.125q-0.671875 -0.125 -1.1875 -0.3125q-0.515625 -0.1875 -0.859375 -0.375q-0.34375 -0.203125 -0.5 -0.359375q-0.140625 -0.15625 -0.21875 -0.4375q-0.0625 -0.28125 -0.0625 -0.828125q0 -0.359375 0.015625 -0.609375q0.03125 -0.25 0.078125 -0.390625q0.0625 -0.15625 0.140625 -0.21875q0.09375 -0.0625 0.21875 -0.0625q0.15625 0 0.453125 0.1875q0.3125 0.1875 0.78125 0.421875q0.46875 0.234375 1.109375 0.4375q0.65625 0.1875 1.515625 0.1875q0.5625 0 0.9999981 -0.125q0.453125 -0.140625 0.75 -0.390625q0.3125 -0.25 0.46875 -0.609375q0.171875 -0.359375 0.171875 -0.8125q0 -0.515625 -0.28125 -0.875q-0.28125 -0.375 -0.734375 -0.65625q-0.4375 -0.296875 -1.0156231 -0.546875q-0.578125 -0.25 -1.1875 -0.53125q-0.609375 -0.28125 -1.1875 -0.640625q-0.5625 -0.359375 -1.015625 -0.84375q-0.453125 -0.5 -0.734375 -1.171875q-0.28125 -0.6875 -0.28125 -1.640625q0 -1.0937519 0.40625 -1.9218769q0.40625 -0.828125 1.078125 -1.359375q0.6875 -0.546875 1.625 -0.8125q0.9375 -0.28125 1.9687481 -0.28125q0.546875 0 1.078125 0.09375q0.546875 0.078125 1.015625 0.21875q0.46875 0.140625 0.828125 0.3125q0.359375 0.171875 0.46875 0.296875q0.125 0.109375 0.171875 0.203125q0.046875 0.078125 0.0625 0.21875q0.03125 0.125 0.046875 0.328125q0.015625 0.203125 0.015625 0.515625q0 0.328125 -0.015625 0.5625q-0.015625 0.234375 -0.0625 0.390625q-0.046875 0.15625 -0.125 0.234375q-0.0625 0.0625 -0.203125 0.0625q-0.125 0 -0.40625 -0.15625q-0.28125 -0.171875 -0.6875 -0.359375q-0.40625 -0.203125 -0.953125 -0.359375q-0.53125 -0.15625 -1.1875 -0.15625q-0.4999981 0 -0.8749981 0.125q-0.375 0.125 -0.625 0.34375q-0.25 0.203125 -0.375 0.515625q-0.125 0.296875 -0.125 0.6406269q0 0.5 0.265625 0.875q0.28125 0.375 0.75 0.65625q0.46875 0.28125 1.0468731 0.546875q0.59375 0.25 1.203125 0.53125q0.609375 0.28125 1.1875 0.640625q0.59375 0.34375 1.046875 0.84375q0.453125 0.5 0.734375 1.171875q0.28125 0.671875 0.28125 1.59375zm5.140625 4.140625q0 0.125 -0.078125 0.21875q-0.0625 0.078125 -0.234375 0.140625q-0.171875 0.0625 -0.453125 0.09375q-0.28125 0.03125 -0.71875 0.03125q-0.4375 0 -0.71875 -0.03125q-0.28125 -0.03125 -0.453125 -0.09375q-0.15625 -0.0625 -0.234375 -0.140625q-0.0625 -0.09375 -0.0625 -0.21875l0 -10.421875q0 -0.125 0.0625 -0.203125q0.078125 -0.09375 0.234375 -0.15625q0.171875 -0.0625 0.453125 -0.09375q0.28125 -0.046875 0.71875 -0.046875q0.4375 0 0.71875 0.046875q0.28125 0.03125 0.453125 0.09375q0.171875 0.0625 0.234375 0.15625q0.078125 0.078125 0.078125 0.203125l0 10.421875zm0.21875 -13.984377q0 0.890625 -0.375 1.234375q-0.359375 0.328125 -1.34375 0.328125q-0.984375 0 -1.34375 -0.328125q-0.34375 -0.328125 -0.34375 -1.171875q0 -0.890625 0.359375 -1.234375q0.359375 -0.359375 1.359375 -0.359375q0.984375 0 1.328125 0.34375q0.359375 0.328125 0.359375 1.1875zm12.707031 13.984377q0 0.125 -0.078125 0.21875q-0.0625 0.078125 -0.234375 0.140625q-0.15625 0.0625 -0.453125 0.09375q-0.28125 0.03125 -0.703125 0.03125q-0.4375 0 -0.734375 -0.03125q-0.28125 -0.03125 -0.453125 -0.09375q-0.15625 -0.0625 -0.234375 -0.140625q-0.0625 -0.09375 -0.0625 -0.21875l0 -5.953125q0 -0.765625 -0.109375 -1.203125q-0.109375 -0.4375 -0.328125 -0.734375q-0.203125 -0.3125 -0.546875 -0.484375q-0.328125 -0.171875 -0.765625 -0.171875q-0.5625 0 -1.140625 0.40625q-0.578125 0.40625 -1.1875 1.203125l0 6.9375q0 0.125 -0.078125 0.21875q-0.0625 0.078125 -0.234375 0.140625q-0.171875 0.0625 -0.453125 0.09375q-0.28125 0.03125 -0.71875 0.03125q-0.4375 0 -0.71875 -0.03125q-0.28125 -0.03125 -0.453125 -0.09375q-0.15625 -0.0625 -0.234375 -0.140625q-0.0625 -0.09375 -0.0625 -0.21875l0 -10.453125q0 -0.109375 0.046875 -0.1875q0.0625 -0.09375 0.21875 -0.15625q0.15625 -0.0625 0.390625 -0.09375q0.234375 -0.03125 0.609375 -0.03125q0.375 0 0.609375 0.03125q0.25 0.03125 0.375 0.09375q0.140625 0.0625 0.203125 0.15625q0.0625 0.078125 0.0625 0.1875l0 1.21875q0.859375 -0.9375 1.75 -1.40625q0.90625 -0.46875 1.875 -0.46875q1.078125 0 1.796875 0.359375q0.734375 0.34375 1.1875 0.953125q0.453125 0.59375 0.65625 1.40625q0.203125 0.796875 0.203125 1.9375l0 6.453125zm12.316406 -9.71875q0 0.5625 -0.140625 0.828125q-0.125 0.265625 -0.3125 0.265625l-1.234375 0q0.265625 0.28125 0.375 0.640625q0.109375 0.359375 0.109375 0.75q0 0.90625 -0.3125 1.625q-0.296875 0.703125 -0.875 1.1875q-0.5625 0.484375 -1.359375 0.75q-0.796875 0.25 -1.78125 0.25q-0.515625 0 -0.96875 -0.125q-0.453125 -0.125 -0.703125 -0.296875q-0.140625 0.15625 -0.25 0.375q-0.109375 0.203125 -0.109375 0.46875q0 0.328125 0.296875 0.546875q0.296875 0.21875 0.84375 0.25l2.53125 0.09375q0.890625 0.03125 1.59375 0.25q0.703125 0.21875 1.171875 0.609375q0.46875 0.390625 0.71875 0.9375q0.265625 0.546875 0.265625 1.265625q0 0.765625 -0.34375 1.453125q-0.34375 0.6875 -1.03125 1.1875q-0.671875 0.5 -1.703125 0.796875q-1.015625 0.296875 -2.390625 0.296875q-1.328125 0 -2.28125 -0.21875q-0.9375 -0.203125 -1.546875 -0.578125q-0.59375 -0.375 -0.875 -0.90625q-0.28125 -0.515625 -0.28125 -1.140625q0 -0.375 0.09375 -0.734375q0.109375 -0.34375 0.296875 -0.671875q0.203125 -0.328125 0.484375 -0.609375q0.28125 -0.296875 0.640625 -0.578125q-0.5 -0.265625 -0.78125 -0.71875q-0.265625 -0.46875 -0.265625 -1.015625q0 -0.703125 0.3125 -1.265625q0.3125 -0.5625 0.8125 -1.03125q-0.40625 -0.40625 -0.65625 -0.96875q-0.234375 -0.578125 -0.234375 -1.4375q0 -0.921875 0.3125 -1.640625q0.328125 -0.71875 0.890625 -1.21875q0.578125 -0.5 1.375 -0.75q0.796875 -0.265625 1.765625 -0.265625q0.484375 0 0.9375 0.0625q0.453125 0.046875 0.84375 0.15625l3.3125 0q0.203125 0 0.328125 0.265625q0.125 0.25 0.125 0.859375zm-3.796875 2.46875q0 -0.84375 -0.46875 -1.3125q-0.46875 -0.46875 -1.3125 -0.46875q-0.4375 0 -0.765625 0.15625q-0.328125 0.140625 -0.546875 0.390625q-0.21875 0.25 -0.328125 0.59375q-0.09375 0.328125 -0.09375 0.6875q0 0.796875 0.46875 1.265625q0.46875 0.453125 1.296875 0.453125q0.4375 0 0.765625 -0.140625q0.328125 -0.140625 0.546875 -0.375q0.21875 -0.25 0.328125 -0.5625q0.109375 -0.328125 0.109375 -0.6875zm0.703125 8.34375q0 -0.515625 -0.421875 -0.796875q-0.421875 -0.296875 -1.171875 -0.3125l-2.09375 -0.0625q-0.296875 0.21875 -0.484375 0.4375q-0.1875 0.203125 -0.296875 0.390625q-0.109375 0.1875 -0.140625 0.359375q-0.03125 0.171875 -0.03125 0.359375q0 0.59375 0.578125 0.890625q0.59375 0.3125 1.671875 0.3125q0.671875 0 1.125 -0.140625q0.46875 -0.125 0.75 -0.359375q0.28125 -0.21875 0.390625 -0.5q0.125 -0.265625 0.125 -0.578125zm8.003906 -1.09375q0 0.125 -0.078125 0.21875q-0.0625 0.078125 -0.234375 0.140625q-0.171875 0.0625 -0.453125 0.09375q-0.28125 0.03125 -0.71875 0.03125q-0.4375 0 -0.71875 -0.03125q-0.28125 -0.03125 -0.453125 -0.09375q-0.15625 -0.0625 -0.234375 -0.140625q-0.0625 -0.09375 -0.0625 -0.21875l0 -15.406252q0 -0.109375 0.0625 -0.203125q0.078125 -0.09375 0.234375 -0.15625q0.171875 -0.078125 0.453125 -0.109375q0.28125 -0.03125 0.71875 -0.03125q0.4375 0 0.71875 0.03125q0.28125 0.03125 0.453125 0.109375q0.171875 0.0625 0.234375 0.15625q0.078125 0.09375 0.078125 0.203125l0 15.406252zm12.597656 -5.53125q0 0.546875 -0.25 0.8125q-0.234375 0.25 -0.65625 0.25l-6.359375 0q0 0.671875 0.15625 1.21875q0.15625 0.53125 0.5 0.921875q0.34375 0.375 0.890625 0.578125q0.546875 0.203125 1.3125 0.203125q0.765625 0 1.34375 -0.109375q0.59375 -0.125 1.015625 -0.25q0.4375 -0.140625 0.71875 -0.25q0.28125 -0.109375 0.453125 -0.109375q0.109375 0 0.171875 0.046875q0.078125 0.03125 0.125 0.140625q0.046875 0.109375 0.0625 0.296875q0.015625 0.1875 0.015625 0.484375q0 0.265625 -0.015625 0.453125q0 0.171875 -0.03125 0.296875q-0.015625 0.125 -0.0625 0.21875q-0.046875 0.09375 -0.125 0.171875q-0.078125 0.078125 -0.421875 0.21875q-0.34375 0.140625 -0.875 0.28125q-0.515625 0.140625 -1.203125 0.234375q-0.671875 0.09375 -1.453125 0.09375q-1.390625 0 -2.4375 -0.34375q-1.046875 -0.359375 -1.75 -1.0625q-0.703125 -0.71875 -1.046875 -1.8125q-0.34375 -1.09375 -0.34375 -2.5625q0 -1.390625 0.359375 -2.5q0.359375 -1.125 1.046875 -1.90625q0.703125 -0.78125 1.6875 -1.1875q0.984375 -0.40625 2.234375 -0.40625q1.3125 0 2.234375 0.390625q0.9375 0.375 1.53125 1.0625q0.609375 0.6875 0.890625 1.625q0.28125 0.9375 0.28125 2.03125l0 0.46875zm-2.859375 -0.84375q0.03125 -1.234375 -0.5 -1.9375q-0.53125 -0.71875 -1.65625 -0.71875q-0.5625 0 -0.984375 0.21875q-0.40625 0.203125 -0.6875 0.5625q-0.265625 0.359375 -0.421875 0.84375q-0.140625 0.484375 -0.15625 1.03125l4.40625 0zm21.367188 4.484375q0 0.296875 -0.015625 0.5q-0.015625 0.203125 -0.0625 0.359375q-0.03125 0.140625 -0.09375 0.25q-0.046875 0.09375 -0.1875 0.234375q-0.125 0.125 -0.5 0.34375q-0.359375 0.203125 -0.890625 0.40625q-0.53125 0.1875 -1.21875 0.3125q-0.6875 0.140625 -1.484375 0.140625q-1.5625 0 -2.8125 -0.484375q-1.25 -0.484375 -2.140625 -1.4375q-0.875 -0.953125 -1.34375 -2.375q-0.46875 -1.4375 -0.46875 -3.34375q0 -1.921875 0.515625 -3.421875q0.515625 -1.5000019 1.4375 -2.515627q0.9375 -1.03125 2.234375 -1.546875q1.296875 -0.53125 2.84375 -0.53125q0.640625 0 1.21875 0.109375q0.59375 0.09375 1.09375 0.265625q0.5 0.171875 0.890625 0.390625q0.40625 0.21875 0.5625 0.390625q0.15625 0.15625 0.203125 0.265625q0.0625 0.09375 0.09375 0.265625q0.046875 0.15625 0.0625 0.390625q0.015625 0.21875 0.015625 0.546875q0 0.34375 -0.03125 0.59375q-0.015625 0.25 -0.078125 0.40625q-0.046875 0.1406269 -0.140625 0.2187519q-0.078125 0.0625 -0.1875 0.0625q-0.171875 0 -0.4375 -0.203125q-0.265625 -0.2031269 -0.703125 -0.4531269q-0.421875 -0.25 -1.015625 -0.453125q-0.59375 -0.21875 -1.40625 -0.21875q-0.90625 0 -1.625 0.375q-0.703125 0.375 -1.203125 1.0625019q-0.5 0.671875 -0.765625 1.65625q-0.25 0.96875 -0.25 2.1875q0 1.328125 0.28125 2.3125q0.28125 0.984375 0.78125 1.625q0.515625 0.625 1.234375 0.9375q0.71875 0.296875 1.625 0.296875q0.8125 0 1.40625 -0.1875q0.609375 -0.1875 1.03125 -0.421875q0.4375 -0.234375 0.703125 -0.421875q0.28125 -0.1875 0.4375 -0.1875q0.109375 0 0.171875 0.046875q0.078125 0.046875 0.125 0.1875q0.046875 0.140625 0.0625 0.390625q0.03125 0.25 0.03125 0.671875zm12.59375 -8.265625q0 1.28125 -0.40625 2.265625q-0.390625 0.984375 -1.15625 1.65625q-0.75 0.671875 -1.859375 1.03125q-1.109375 0.34375 -2.609375 0.34375l-1.265625 0l0 4.84375q0 0.109375 -0.078125 0.203125q-0.078125 0.09375 -0.25 0.15625q-0.171875 0.0625 -0.46875 0.09375q-0.296875 0.046875 -0.75 0.046875q-0.4375 0 -0.75 -0.046875q-0.296875 -0.03125 -0.46875 -0.09375q-0.171875 -0.0625 -0.25 -0.15625q-0.0625 -0.09375 -0.0625 -0.203125l0 -13.640627q0 -0.546875 0.28125 -0.828125q0.296875 -0.28125 0.765625 -0.28125l3.5625 0q0.546875 0 1.03125 0.046875q0.484375 0.046875 1.15625 0.1875q0.6875 0.125 1.375 0.484375q0.703125 0.359375 1.1875 0.921875q0.5 0.5625 0.75 1.3125q0.265625 0.7343769 0.265625 1.6562519zm-3.21875 0.21875q0 -0.796875 -0.28125 -1.3125q-0.28125 -0.5156269 -0.6875 -0.7500019q-0.40625 -0.25 -0.859375 -0.3125q-0.453125 -0.0625 -0.9375 -0.0625l-1.3125 0l0 5.140627l1.390625 0q0.734375 0 1.234375 -0.203125q0.5 -0.203125 0.8125 -0.546875q0.3125 -0.359375 0.46875 -0.859375q0.171875 -0.5 0.171875 -1.09375zm17.992188 4.6875q0 1.40625 -0.421875 2.515625q-0.40625 1.09375 -1.203125 1.859375q-0.796875 0.75 -1.96875 1.15625q-1.171875 0.390625 -2.6875 0.390625q-1.4375 0 -2.578125 -0.359375q-1.125 -0.359375 -1.921875 -1.078125q-0.78125 -0.734375 -1.203125 -1.8125q-0.40625 -1.078125 -0.40625 -2.53125l0 -9.234377q0 -0.109375 0.0625 -0.203125q0.078125 -0.09375 0.25 -0.15625q0.1875 -0.0625 0.484375 -0.09375q0.296875 -0.03125 0.75 -0.03125q0.453125 0 0.734375 0.03125q0.296875 0.03125 0.46875 0.09375q0.1875 0.0625 0.25 0.15625q0.078125 0.09375 0.078125 0.203125l0 8.953127q0 0.90625 0.21875 1.578125q0.234375 0.65625 0.640625 1.09375q0.421875 0.421875 1.0 0.640625q0.578125 0.21875 1.296875 0.21875q0.734375 0 1.296875 -0.21875q0.578125 -0.21875 0.96875 -0.640625q0.40625 -0.4375 0.625 -1.0625q0.21875 -0.625 0.21875 -1.421875l0 -9.140627q0 -0.109375 0.0625 -0.203125q0.078125 -0.09375 0.25 -0.15625q0.171875 -0.0625 0.46875 -0.09375q0.3125 -0.03125 0.75 -0.03125q0.453125 0 0.734375 0.03125q0.28125 0.03125 0.453125 0.09375q0.1875 0.0625 0.25 0.15625q0.078125 0.09375 0.078125 0.203125l0 9.093752z" fill-rule="nonzero"></path><path fill="#000000" fill-opacity="0.0" d="m17.023623 225.54724l333.13385 0l0 45.19684l-333.13385 0z" fill-rule="nonzero"></path><path fill="#000000" d="m40.27362 249.77475q0 2.09375 -0.546875 3.578125q-0.546875 1.484375 -1.5625 2.421875q-1.015625 0.9375 -2.484375 1.375q-1.453125 0.4375 -3.46875 0.4375l-3.624998 0q-0.375 0 -0.640625 -0.21875q-0.265625 -0.234375 -0.265625 -0.75l0 -13.21875q0 -0.515625 0.265625 -0.75q0.265625 -0.234375 0.640625 -0.234375l3.890623 0q2.03125 0 3.4375 0.484375q1.421875 0.46875 2.390625 1.40625q0.96875 0.921875 1.46875 2.296875q0.5 1.375 0.5 3.171875zm-3.1875 0.109375q0 -1.078125 -0.25 -2.0q-0.25 -0.921875 -0.8125 -1.59375q-0.546875 -0.6875 -1.421875 -1.0625q-0.875 -0.390625 -2.296875 -0.390625l-1.5624981 0l0 10.3125l1.6093731 0q1.265625 0 2.125 -0.328125q0.875 -0.328125 1.453125 -0.984375q0.578125 -0.671875 0.859375 -1.65625q0.296875 -0.984375 0.296875 -2.296875zm15.457031 7.296875q0 0.125 -0.0625 0.21875q-0.046875 0.078125 -0.203125 0.140625q-0.140625 0.0625 -0.390625 0.09375q-0.234375 0.03125 -0.59375 0.03125q-0.390625 0 -0.640625 -0.03125q-0.234375 -0.03125 -0.375 -0.09375q-0.140625 -0.0625 -0.203125 -0.140625q-0.046875 -0.09375 -0.046875 -0.21875l0 -1.203125q-0.875 0.9375 -1.765625 1.40625q-0.890625 0.46875 -1.859375 0.46875q-1.078125 0 -1.8125 -0.34375q-0.734375 -0.359375 -1.1875 -0.96875q-0.4375 -0.609375 -0.640625 -1.40625q-0.1875 -0.8125 -0.1875 -2.0l0 -6.40625q0 -0.109375 0.0625 -0.1875q0.0625 -0.09375 0.234375 -0.15625q0.171875 -0.0625 0.453125 -0.09375q0.296875 -0.03125 0.71875 -0.03125q0.421875 0 0.703125 0.03125q0.28125 0.03125 0.453125 0.09375q0.171875 0.0625 0.234375 0.15625q0.078125 0.078125 0.078125 0.1875l0 5.90625q0 0.828125 0.109375 1.265625q0.109375 0.421875 0.3125 0.734375q0.21875 0.3125 0.546875 0.484375q0.34375 0.171875 0.796875 0.171875q0.5625 0 1.125 -0.40625q0.5625 -0.421875 1.21875 -1.203125l0 -6.953125q0 -0.109375 0.0625 -0.1875q0.0625 -0.09375 0.234375 -0.15625q0.171875 -0.0625 0.453125 -0.09375q0.28125 -0.03125 0.703125 -0.03125q0.4375 0 0.71875 0.03125q0.28125 0.03125 0.4375 0.09375q0.171875 0.0625 0.234375 0.15625q0.078125 0.078125 0.078125 0.1875l0 10.453125zm11.878906 0.046875q0 0.15625 -0.125 0.25q-0.109375 0.09375 -0.375 0.140625q-0.25 0.046875 -0.734375 0.046875q-0.53125 0 -0.78125 -0.046875q-0.234375 -0.046875 -0.328125 -0.140625q-0.09375 -0.09375 -0.09375 -0.25l0 -0.84375q-0.65625 0.703125 -1.484375 1.09375q-0.8125 0.375 -1.828125 0.375q-0.828125 0 -1.53125 -0.21875q-0.6875 -0.21875 -1.203125 -0.640625q-0.515625 -0.421875 -0.796875 -1.046875q-0.28125 -0.640625 -0.28125 -1.484375q0 -0.921875 0.359375 -1.59375q0.359375 -0.671875 1.0625 -1.109375q0.71875 -0.4375 1.765625 -0.640625q1.0625 -0.21875 2.453125 -0.21875l1.015625 0l0 -0.640625q0 -0.484375 -0.09375 -0.859375q-0.09375 -0.375 -0.328125 -0.609375q-0.234375 -0.25 -0.609375 -0.359375q-0.375 -0.125 -0.9375 -0.125q-0.75 0 -1.328125 0.171875q-0.578125 0.15625 -1.03125 0.359375q-0.4375 0.1875 -0.734375 0.359375q-0.296875 0.15625 -0.484375 0.15625q-0.125 0 -0.234375 -0.078125q-0.09375 -0.078125 -0.15625 -0.234375q-0.0625 -0.15625 -0.109375 -0.375q-0.03125 -0.21875 -0.03125 -0.484375q0 -0.375 0.0625 -0.578125q0.0625 -0.21875 0.21875 -0.375q0.171875 -0.171875 0.578125 -0.375q0.40625 -0.21875 0.953125 -0.390625q0.5625 -0.171875 1.203125 -0.28125q0.65625 -0.109375 1.34375 -0.109375q1.234375 0 2.109375 0.234375q0.875 0.234375 1.4375 0.734375q0.5625 0.5 0.8125 1.296875q0.265625 0.78125 0.265625 1.859375l0 7.03125zm-2.90625 -4.484375l-1.125 0q-0.703125 0 -1.21875 0.109375q-0.5 0.109375 -0.8125 0.328125q-0.3125 0.203125 -0.46875 0.5q-0.140625 0.296875 -0.140625 0.6875q0 0.65625 0.40625 1.03125q0.421875 0.375 1.15625 0.375q0.625 0 1.140625 -0.3125q0.53125 -0.328125 1.0625 -0.9375l0 -1.78125zm8.800781 4.4375q0 0.125 -0.078125 0.21875q-0.0625 0.078125 -0.234375 0.140625q-0.171875 0.0625 -0.453125 0.09375q-0.28125 0.03125 -0.71875 0.03125q-0.4375 0 -0.71875 -0.03125q-0.28125 -0.03125 -0.453125 -0.09375q-0.15625 -0.0625 -0.234375 -0.140625q-0.0625 -0.09375 -0.0625 -0.21875l0 -15.40625q0 -0.109375 0.0625 -0.203125q0.078125 -0.09375 0.234375 -0.15625q0.171875 -0.078125 0.453125 -0.109375q0.28125 -0.03125 0.71875 -0.03125q0.4375 0 0.71875 0.03125q0.28125 0.03125 0.453125 0.109375q0.171875 0.0625 0.234375 0.15625q0.078125 0.09375 0.078125 0.203125l0 15.40625zm18.914062 -10.15625q0 1.28125 -0.40625 2.265625q-0.390625 0.984375 -1.15625 1.65625q-0.75 0.671875 -1.859375 1.03125q-1.109375 0.34375 -2.609375 0.34375l-1.265625 0l0 4.84375q0 0.109375 -0.078125 0.203125q-0.078125 0.09375 -0.25 0.15625q-0.171875 0.0625 -0.46875 0.09375q-0.296875 0.046875 -0.75 0.046875q-0.4375 0 -0.75 -0.046875q-0.296875 -0.03125 -0.46875 -0.09375q-0.171875 -0.0625 -0.25 -0.15625q-0.0625 -0.09375 -0.0625 -0.203125l0 -13.640625q0 -0.546875 0.28125 -0.828125q0.296875 -0.28125 0.765625 -0.28125l3.5625 0q0.546875 0 1.03125 0.046875q0.484375 0.046875 1.15625 0.1875q0.6875 0.125 1.375 0.484375q0.703125 0.359375 1.1875 0.921875q0.5 0.5625 0.75 1.3125q0.265625 0.734375 0.265625 1.65625zm-3.21875 0.21875q0 -0.796875 -0.28125 -1.3125q-0.28125 -0.515625 -0.6875 -0.75q-0.40625 -0.25 -0.859375 -0.3125q-0.453125 -0.0625 -0.9375 -0.0625l-1.3125 0l0 5.140625l1.390625 0q0.734375 0 1.234375 -0.203125q0.5 -0.203125 0.8125 -0.546875q0.3125 -0.359375 0.46875 -0.859375q0.171875 -0.5 0.171875 -1.09375zm15.4296875 9.9375q0 0.125 -0.078125 0.21875q-0.0625 0.078125 -0.234375 0.140625q-0.15625 0.0625 -0.453125 0.09375q-0.28125 0.03125 -0.703125 0.03125q-0.4375 0 -0.734375 -0.03125q-0.28125 -0.03125 -0.453125 -0.09375q-0.15625 -0.0625 -0.234375 -0.140625q-0.0625 -0.09375 -0.0625 -0.21875l0 -5.953125q0 -0.765625 -0.109375 -1.203125q-0.109375 -0.4375 -0.328125 -0.734375q-0.203125 -0.3125 -0.546875 -0.484375q-0.328125 -0.171875 -0.765625 -0.171875q-0.5625 0 -1.140625 0.40625q-0.578125 0.40625 -1.1875 1.203125l0 6.9375q0 0.125 -0.078125 0.21875q-0.0625 0.078125 -0.234375 0.140625q-0.171875 0.0625 -0.453125 0.09375q-0.28125 0.03125 -0.71875 0.03125q-0.4375 0 -0.71875 -0.03125q-0.28125 -0.03125 -0.453125 -0.09375q-0.15625 -0.0625 -0.234375 -0.140625q-0.0625 -0.09375 -0.0625 -0.21875l0 -15.40625q0 -0.109375 0.0625 -0.203125q0.078125 -0.09375 0.234375 -0.15625q0.171875 -0.078125 0.453125 -0.109375q0.28125 -0.03125 0.71875 -0.03125q0.4375 0 0.71875 0.03125q0.28125 0.03125 0.453125 0.109375q0.171875 0.0625 0.234375 0.15625q0.078125 0.09375 0.078125 0.203125l0 5.78125q0.75 -0.75 1.546875 -1.109375q0.796875 -0.375 1.640625 -0.375q1.078125 0 1.796875 0.359375q0.734375 0.34375 1.1875 0.953125q0.453125 0.609375 0.65625 1.421875q0.203125 0.8125 0.203125 1.96875l0 6.40625zm8.941406 0.40625l-1.265625 3.703125q-0.09375 0.296875 -0.5625 0.421875q-0.46875 0.125 -1.375 0.125q-0.46875 0 -0.75 -0.046875q-0.28125 -0.03125 -0.421875 -0.125q-0.140625 -0.09375 -0.15625 -0.234375q-0.015625 -0.140625 0.078125 -0.34375l1.390625 -3.5q-0.15625 -0.078125 -0.28125 -0.21875q-0.125 -0.140625 -0.171875 -0.3125l-3.609375 -9.609375q-0.140625 -0.40625 -0.140625 -0.625q0 -0.21875 0.140625 -0.34375q0.140625 -0.125 0.46875 -0.171875q0.328125 -0.046875 0.890625 -0.046875q0.5 0 0.78125 0.03125q0.296875 0.015625 0.453125 0.09375q0.171875 0.0625 0.25 0.203125q0.09375 0.140625 0.171875 0.421875l2.46875 6.984375l0.03125 0l2.25 -7.125q0.0625 -0.3125 0.171875 -0.40625q0.125 -0.109375 0.375 -0.15625q0.265625 -0.046875 0.90625 -0.046875q0.5 0 0.828125 0.046875q0.34375 0.046875 0.5 0.1875q0.15625 0.125 0.15625 0.34375q0 0.21875 -0.09375 0.5l-3.484375 10.25zm12.6796875 -3.359375q0 0.890625 -0.34375 1.578125q-0.328125 0.671875 -0.9375 1.140625q-0.609375 0.453125 -1.453125 0.671875q-0.828125 0.234375 -1.796875 0.234375q-0.578125 0 -1.125 -0.09375q-0.53125 -0.078125 -0.953125 -0.203125q-0.421875 -0.140625 -0.703125 -0.28125q-0.28125 -0.140625 -0.40625 -0.265625q-0.125 -0.125 -0.203125 -0.390625q-0.0625 -0.265625 -0.0625 -0.78125q0 -0.34375 0.015625 -0.546875q0.03125 -0.203125 0.078125 -0.328125q0.046875 -0.125 0.109375 -0.15625q0.078125 -0.046875 0.1875 -0.046875q0.125 0 0.375 0.15625q0.25 0.140625 0.625 0.3125q0.375 0.171875 0.875 0.328125q0.5 0.15625 1.125 0.15625q0.40625 0 0.71875 -0.078125q0.3125 -0.09375 0.53125 -0.234375q0.234375 -0.15625 0.34375 -0.390625q0.125 -0.234375 0.125 -0.546875q0 -0.34375 -0.21875 -0.59375q-0.21875 -0.25 -0.578125 -0.4375q-0.359375 -0.1875 -0.8125 -0.34375q-0.4375 -0.171875 -0.921875 -0.375q-0.46875 -0.203125 -0.921875 -0.453125q-0.453125 -0.265625 -0.8125 -0.640625q-0.359375 -0.375 -0.578125 -0.890625q-0.203125 -0.53125 -0.203125 -1.28125q0 -0.75 0.28125 -1.375q0.296875 -0.625 0.84375 -1.0625q0.5625 -0.453125 1.34375 -0.6875q0.796875 -0.25 1.78125 -0.25q0.484375 0 0.953125 0.078125q0.46875 0.0625 0.84375 0.171875q0.375 0.09375 0.625 0.21875q0.265625 0.125 0.375 0.21875q0.109375 0.078125 0.15625 0.171875q0.046875 0.078125 0.0625 0.203125q0.03125 0.125 0.046875 0.3125q0.015625 0.171875 0.015625 0.453125q0 0.3125 -0.015625 0.515625q-0.015625 0.1875 -0.0625 0.3125q-0.03125 0.109375 -0.109375 0.15625q-0.0625 0.046875 -0.15625 0.046875q-0.109375 0 -0.34375 -0.125q-0.21875 -0.125 -0.546875 -0.265625q-0.328125 -0.140625 -0.78125 -0.265625q-0.4375 -0.125 -1.0 -0.125q-0.390625 0 -0.6875 0.09375q-0.296875 0.078125 -0.484375 0.234375q-0.1875 0.140625 -0.28125 0.34375q-0.09375 0.203125 -0.09375 0.4375q0 0.375 0.21875 0.625q0.234375 0.234375 0.59375 0.421875q0.359375 0.1875 0.828125 0.359375q0.46875 0.15625 0.9375 0.359375q0.46875 0.1875 0.9375 0.453125q0.46875 0.25 0.828125 0.625q0.359375 0.375 0.578125 0.90625q0.234375 0.515625 0.234375 1.21875zm5.1679688 2.953125q0 0.125 -0.078125 0.21875q-0.0625 0.078125 -0.234375 0.140625q-0.171875 0.0625 -0.453125 0.09375q-0.28125 0.03125 -0.71875 0.03125q-0.4375 0 -0.71875 -0.03125q-0.28125 -0.03125 -0.453125 -0.09375q-0.15625 -0.0625 -0.234375 -0.140625q-0.0625 -0.09375 -0.0625 -0.21875l0 -10.421875q0 -0.125 0.0625 -0.203125q0.078125 -0.09375 0.234375 -0.15625q0.171875 -0.0625 0.453125 -0.09375q0.28125 -0.046875 0.71875 -0.046875q0.4375 0 0.71875 0.046875q0.28125 0.03125 0.453125 0.09375q0.171875 0.0625 0.234375 0.15625q0.078125 0.078125 0.078125 0.203125l0 10.421875zm0.21875 -13.984375q0 0.890625 -0.375 1.234375q-0.359375 0.328125 -1.34375 0.328125q-0.984375 0 -1.34375 -0.328125q-0.34375 -0.328125 -0.34375 -1.171875q0 -0.890625 0.359375 -1.234375q0.359375 -0.359375 1.359375 -0.359375q0.984375 0 1.328125 0.34375q0.359375 0.328125 0.359375 1.1875zm10.628906 12.328125q0 0.296875 -0.015625 0.515625q-0.015625 0.203125 -0.046875 0.34375q-0.03125 0.140625 -0.078125 0.234375q-0.03125 0.078125 -0.171875 0.21875q-0.140625 0.125 -0.484375 0.328125q-0.34375 0.1875 -0.78125 0.34375q-0.421875 0.15625 -0.9375 0.25q-0.515625 0.09375 -1.046875 0.09375q-1.203125 0 -2.140625 -0.375q-0.9375 -0.390625 -1.578125 -1.109375q-0.625 -0.734375 -0.953125 -1.78125q-0.3125 -1.0625 -0.3125 -2.421875q0 -1.578125 0.390625 -2.71875q0.390625 -1.140625 1.09375 -1.890625q0.703125 -0.75 1.65625 -1.109375q0.96875 -0.375 2.125 -0.375q0.46875 0 0.921875 0.09375q0.453125 0.078125 0.84375 0.21875q0.390625 0.140625 0.703125 0.3125q0.3125 0.171875 0.4375 0.3125q0.125 0.125 0.171875 0.21875q0.0625 0.078125 0.09375 0.21875q0.03125 0.140625 0.046875 0.34375q0.015625 0.203125 0.015625 0.5q0 0.6875 -0.125 0.96875q-0.109375 0.265625 -0.296875 0.265625q-0.203125 0 -0.421875 -0.15625q-0.21875 -0.171875 -0.53125 -0.375q-0.296875 -0.203125 -0.71875 -0.359375q-0.421875 -0.171875 -1.015625 -0.171875q-1.140625 0 -1.75 0.890625q-0.609375 0.890625 -0.609375 2.59375q0 0.84375 0.140625 1.5q0.15625 0.640625 0.453125 1.078125q0.296875 0.421875 0.75 0.640625q0.453125 0.21875 1.046875 0.21875q0.609375 0 1.046875 -0.171875q0.453125 -0.1875 0.78125 -0.40625q0.328125 -0.234375 0.546875 -0.40625q0.21875 -0.1875 0.375 -0.1875q0.109375 0 0.171875 0.0625q0.078125 0.046875 0.109375 0.21875q0.046875 0.15625 0.0625 0.40625q0.03125 0.234375 0.03125 0.625zm11.042969 1.703125q0 0.15625 -0.125 0.25q-0.109375 0.09375 -0.375 0.140625q-0.25 0.046875 -0.734375 0.046875q-0.53125 0 -0.78125 -0.046875q-0.234375 -0.046875 -0.328125 -0.140625q-0.09375 -0.09375 -0.09375 -0.25l0 -0.84375q-0.65625 0.703125 -1.484375 1.09375q-0.8125 0.375 -1.828125 0.375q-0.828125 0 -1.53125 -0.21875q-0.6875 -0.21875 -1.203125 -0.640625q-0.515625 -0.421875 -0.796875 -1.046875q-0.28125 -0.640625 -0.28125 -1.484375q0 -0.921875 0.359375 -1.59375q0.359375 -0.671875 1.0625 -1.109375q0.71875 -0.4375 1.765625 -0.640625q1.0625 -0.21875 2.453125 -0.21875l1.015625 0l0 -0.640625q0 -0.484375 -0.09375 -0.859375q-0.09375 -0.375 -0.328125 -0.609375q-0.234375 -0.25 -0.609375 -0.359375q-0.375 -0.125 -0.9375 -0.125q-0.75 0 -1.328125 0.171875q-0.578125 0.15625 -1.03125 0.359375q-0.4375 0.1875 -0.734375 0.359375q-0.296875 0.15625 -0.484375 0.15625q-0.125 0 -0.234375 -0.078125q-0.09375 -0.078125 -0.15625 -0.234375q-0.0625 -0.15625 -0.109375 -0.375q-0.03125 -0.21875 -0.03125 -0.484375q0 -0.375 0.0625 -0.578125q0.0625 -0.21875 0.21875 -0.375q0.171875 -0.171875 0.578125 -0.375q0.40625 -0.21875 0.953125 -0.390625q0.5625 -0.171875 1.203125 -0.28125q0.65625 -0.109375 1.34375 -0.109375q1.234375 0 2.109375 0.234375q0.875 0.234375 1.4375 0.734375q0.5625 0.5 0.8125 1.296875q0.265625 0.78125 0.265625 1.859375l0 7.03125zm-2.90625 -4.484375l-1.125 0q-0.703125 0 -1.21875 0.109375q-0.5 0.109375 -0.8125 0.328125q-0.3125 0.203125 -0.46875 0.5q-0.140625 0.296875 -0.140625 0.6875q0 0.65625 0.40625 1.03125q0.421875 0.375 1.15625 0.375q0.625 0 1.140625 -0.3125q0.53125 -0.328125 1.0625 -0.9375l0 -1.78125zm8.800781 4.4375q0 0.125 -0.078125 0.21875q-0.0625 0.078125 -0.234375 0.140625q-0.171875 0.0625 -0.453125 0.09375q-0.28125 0.03125 -0.71875 0.03125q-0.4375 0 -0.71875 -0.03125q-0.28125 -0.03125 -0.453125 -0.09375q-0.15625 -0.0625 -0.234375 -0.140625q-0.0625 -0.09375 -0.0625 -0.21875l0 -15.40625q0 -0.109375 0.0625 -0.203125q0.078125 -0.09375 0.234375 -0.15625q0.171875 -0.078125 0.453125 -0.109375q0.28125 -0.03125 0.71875 -0.03125q0.4375 0 0.71875 0.03125q0.28125 0.03125 0.453125 0.109375q0.171875 0.0625 0.234375 0.15625q0.078125 0.09375 0.078125 0.203125l0 15.40625zm19.023438 -1.890625q0 0.296875 -0.015625 0.5q-0.015625 0.203125 -0.0625 0.359375q-0.03125 0.140625 -0.09375 0.25q-0.046875 0.09375 -0.1875 0.234375q-0.125 0.125 -0.5 0.34375q-0.359375 0.203125 -0.890625 0.40625q-0.53125 0.1875 -1.21875 0.3125q-0.6875 0.140625 -1.484375 0.140625q-1.5625 0 -2.8125 -0.484375q-1.25 -0.484375 -2.140625 -1.4375q-0.875 -0.953125 -1.34375 -2.375q-0.46875 -1.4375 -0.46875 -3.34375q0 -1.921875 0.515625 -3.421875q0.515625 -1.5 1.4375 -2.515625q0.9375 -1.03125 2.234375 -1.546875q1.296875 -0.53125 2.84375 -0.53125q0.640625 0 1.21875 0.109375q0.59375 0.09375 1.09375 0.265625q0.5 0.171875 0.890625 0.390625q0.40625 0.21875 0.5625 0.390625q0.15625 0.15625 0.203125 0.265625q0.0625 0.09375 0.09375 0.265625q0.046875 0.15625 0.0625 0.390625q0.015625 0.21875 0.015625 0.546875q0 0.34375 -0.03125 0.59375q-0.015625 0.25 -0.078125 0.40625q-0.046875 0.140625 -0.140625 0.21875q-0.078125 0.0625 -0.1875 0.0625q-0.171875 0 -0.4375 -0.203125q-0.265625 -0.203125 -0.703125 -0.453125q-0.421875 -0.25 -1.015625 -0.453125q-0.59375 -0.21875 -1.40625 -0.21875q-0.90625 0 -1.625 0.375q-0.703125 0.375 -1.203125 1.0625q-0.5 0.671875 -0.765625 1.65625q-0.25 0.96875 -0.25 2.1875q0 1.328125 0.28125 2.3125q0.28125 0.984375 0.78125 1.625q0.515625 0.625 1.234375 0.9375q0.71875 0.296875 1.625 0.296875q0.8125 0 1.40625 -0.1875q0.609375 -0.1875 1.03125 -0.421875q0.4375 -0.234375 0.703125 -0.421875q0.28125 -0.1875 0.4375 -0.1875q0.109375 0 0.171875 0.046875q0.078125 0.046875 0.125 0.1875q0.046875 0.140625 0.0625 0.390625q0.03125 0.25 0.03125 0.671875zm12.609375 -3.4375q0 1.34375 -0.359375 2.453125q-0.34375 1.09375 -1.0625 1.890625q-0.703125 0.796875 -1.78125 1.234375q-1.078125 0.421875 -2.53125 0.421875q-1.390625 0 -2.421875 -0.375q-1.03125 -0.390625 -1.71875 -1.125q-0.671875 -0.75 -1.0 -1.828125q-0.328125 -1.078125 -0.328125 -2.453125q0 -1.34375 0.359375 -2.453125q0.359375 -1.109375 1.0625 -1.890625q0.71875 -0.796875 1.796875 -1.21875q1.078125 -0.4375 2.515625 -0.4375q1.40625 0 2.4375 0.375q1.03125 0.375 1.703125 1.125q0.671875 0.734375 1.0 1.8125q0.328125 1.078125 0.328125 2.46875zm-3.03125 0.125q0 -0.78125 -0.125 -1.421875q-0.125 -0.65625 -0.421875 -1.140625q-0.28125 -0.484375 -0.78125 -0.75q-0.484375 -0.265625 -1.21875 -0.265625q-0.65625 0 -1.15625 0.25q-0.484375 0.234375 -0.796875 0.703125q-0.3125 0.453125 -0.484375 1.109375q-0.15625 0.640625 -0.15625 1.46875q0 0.78125 0.125 1.4375q0.140625 0.640625 0.421875 1.125q0.296875 0.484375 0.78125 0.75q0.5 0.25 1.21875 0.25q0.671875 0 1.15625 -0.234375q0.5 -0.234375 0.8125 -0.6875q0.3125 -0.46875 0.46875 -1.109375q0.15625 -0.65625 0.15625 -1.484375zm12.074219 -4.265625q0 0.421875 -0.03125 0.6875q-0.015625 0.265625 -0.0625 0.421875q-0.046875 0.15625 -0.125 0.21875q-0.0625 0.046875 -0.1875 0.046875q-0.09375 0 -0.21875 -0.03125q-0.109375 -0.046875 -0.265625 -0.09375q-0.140625 -0.046875 -0.3125 -0.078125q-0.171875 -0.046875 -0.390625 -0.046875q-0.234375 0 -0.484375 0.09375q-0.25 0.09375 -0.515625 0.3125q-0.265625 0.203125 -0.546875 0.5625q-0.28125 0.34375 -0.609375 0.859375l0 6.515625q0 0.125 -0.078125 0.21875q-0.0625 0.078125 -0.234375 0.140625q-0.171875 0.0625 -0.453125 0.09375q-0.28125 0.03125 -0.71875 0.03125q-0.4375 0 -0.71875 -0.03125q-0.28125 -0.03125 -0.453125 -0.09375q-0.15625 -0.0625 -0.234375 -0.140625q-0.0625 -0.09375 -0.0625 -0.21875l0 -10.453125q0 -0.109375 0.046875 -0.1875q0.0625 -0.09375 0.21875 -0.15625q0.15625 -0.0625 0.390625 -0.09375q0.234375 -0.03125 0.609375 -0.03125q0.375 0 0.609375 0.03125q0.25 0.03125 0.375 0.09375q0.140625 0.0625 0.203125 0.15625q0.0625 0.078125 0.0625 0.1875l0 1.3125q0.40625 -0.59375 0.765625 -0.96875q0.375 -0.390625 0.703125 -0.609375q0.328125 -0.21875 0.65625 -0.296875q0.328125 -0.09375 0.65625 -0.09375q0.140625 0 0.3125 0.015625q0.1875 0.015625 0.375 0.0625q0.1875 0.03125 0.328125 0.09375q0.140625 0.046875 0.203125 0.109375q0.0625 0.046875 0.09375 0.125q0.03125 0.0625 0.046875 0.1875q0.03125 0.125 0.03125 0.375q0.015625 0.25 0.015625 0.671875zm11.484375 3.9375q0 0.546875 -0.25 0.8125q-0.234375 0.25 -0.65625 0.25l-6.359375 0q0 0.671875 0.15625 1.21875q0.15625 0.53125 0.5 0.921875q0.34375 0.375 0.890625 0.578125q0.546875 0.203125 1.3125 0.203125q0.765625 0 1.34375 -0.109375q0.59375 -0.125 1.015625 -0.25q0.4375 -0.140625 0.71875 -0.25q0.28125 -0.109375 0.453125 -0.109375q0.109375 0 0.171875 0.046875q0.078125 0.03125 0.125 0.140625q0.046875 0.109375 0.0625 0.296875q0.015625 0.1875 0.015625 0.484375q0 0.265625 -0.015625 0.453125q0 0.171875 -0.03125 0.296875q-0.015625 0.125 -0.0625 0.21875q-0.046875 0.09375 -0.125 0.171875q-0.078125 0.078125 -0.421875 0.21875q-0.34375 0.140625 -0.875 0.28125q-0.515625 0.140625 -1.203125 0.234375q-0.671875 0.09375 -1.453125 0.09375q-1.390625 0 -2.4375 -0.34375q-1.046875 -0.359375 -1.75 -1.0625q-0.703125 -0.71875 -1.046875 -1.8125q-0.34375 -1.09375 -0.34375 -2.5625q0 -1.390625 0.359375 -2.5q0.359375 -1.125 1.046875 -1.90625q0.703125 -0.78125 1.6875 -1.1875q0.984375 -0.40625 2.234375 -0.40625q1.3125 0 2.234375 0.390625q0.9375 0.375 1.53125 1.0625q0.609375 0.6875 0.890625 1.625q0.28125 0.9375 0.28125 2.03125l0 0.46875zm-2.859375 -0.84375q0.03125 -1.234375 -0.5 -1.9375q-0.53125 -0.71875 -1.65625 -0.71875q-0.5625 0 -0.984375 0.21875q-0.40625 0.203125 -0.6875 0.5625q-0.265625 0.359375 -0.421875 0.84375q-0.140625 0.484375 -0.15625 1.03125l4.40625 0zm12.644531 3.421875q0 0.890625 -0.34375 1.578125q-0.328125 0.671875 -0.9375 1.140625q-0.609375 0.453125 -1.453125 0.671875q-0.828125 0.234375 -1.796875 0.234375q-0.578125 0 -1.125 -0.09375q-0.53125 -0.078125 -0.953125 -0.203125q-0.421875 -0.140625 -0.703125 -0.28125q-0.28125 -0.140625 -0.40625 -0.265625q-0.125 -0.125 -0.203125 -0.390625q-0.0625 -0.265625 -0.0625 -0.78125q0 -0.34375 0.015625 -0.546875q0.03125 -0.203125 0.078125 -0.328125q0.046875 -0.125 0.109375 -0.15625q0.078125 -0.046875 0.1875 -0.046875q0.125 0 0.375 0.15625q0.25 0.140625 0.625 0.3125q0.375 0.171875 0.875 0.328125q0.5 0.15625 1.125 0.15625q0.40625 0 0.71875 -0.078125q0.3125 -0.09375 0.53125 -0.234375q0.234375 -0.15625 0.34375 -0.390625q0.125 -0.234375 0.125 -0.546875q0 -0.34375 -0.21875 -0.59375q-0.21875 -0.25 -0.578125 -0.4375q-0.359375 -0.1875 -0.8125 -0.34375q-0.4375 -0.171875 -0.921875 -0.375q-0.46875 -0.203125 -0.921875 -0.453125q-0.453125 -0.265625 -0.8125 -0.640625q-0.359375 -0.375 -0.578125 -0.890625q-0.203125 -0.53125 -0.203125 -1.28125q0 -0.75 0.28125 -1.375q0.296875 -0.625 0.84375 -1.0625q0.5625 -0.453125 1.34375 -0.6875q0.796875 -0.25 1.78125 -0.25q0.484375 0 0.953125 0.078125q0.46875 0.0625 0.84375 0.171875q0.375 0.09375 0.625 0.21875q0.265625 0.125 0.375 0.21875q0.109375 0.078125 0.15625 0.171875q0.046875 0.078125 0.0625 0.203125q0.03125 0.125 0.046875 0.3125q0.015625 0.171875 0.015625 0.453125q0 0.3125 -0.015625 0.515625q-0.015625 0.1875 -0.0625 0.3125q-0.03125 0.109375 -0.109375 0.15625q-0.0625 0.046875 -0.15625 0.046875q-0.109375 0 -0.34375 -0.125q-0.21875 -0.125 -0.546875 -0.265625q-0.328125 -0.140625 -0.78125 -0.265625q-0.4375 -0.125 -1.0 -0.125q-0.390625 0 -0.6875 0.09375q-0.296875 0.078125 -0.484375 0.234375q-0.1875 0.140625 -0.28125 0.34375q-0.09375 0.203125 -0.09375 0.4375q0 0.375 0.21875 0.625q0.234375 0.234375 0.59375 0.421875q0.359375 0.1875 0.828125 0.359375q0.46875 0.15625 0.9375 0.359375q0.46875 0.1875 0.9375 0.453125q0.46875 0.25 0.828125 0.625q0.359375 0.375 0.578125 0.90625q0.234375 0.515625 0.234375 1.21875z" fill-rule="nonzero"></path><path fill="#000000" fill-opacity="0.0" d="m20.0 437.13254l345.25986 0l0 47.496063l-345.25986 0z" fill-rule="nonzero"></path><path fill="#000000" d="m39.640625 464.62567q0 1.1875 -0.453125 2.09375q-0.4375 0.90625 -1.203125 1.515625q-0.75 0.59375 -1.78125 0.90625q-1.015625 0.296875 -2.171875 0.296875q-0.78125 0 -1.46875 -0.125q-0.671875 -0.125 -1.1875 -0.3125q-0.515625 -0.1875 -0.859375 -0.375q-0.34375 -0.203125 -0.5 -0.359375q-0.140625 -0.15625 -0.21875 -0.4375q-0.0625 -0.28125 -0.0625 -0.828125q0 -0.359375 0.015625 -0.609375q0.03125 -0.25 0.078125 -0.390625q0.0625 -0.15625 0.140625 -0.21875q0.09375 -0.0625 0.21875 -0.0625q0.15625 0 0.453125 0.1875q0.3125 0.1875 0.78125 0.421875q0.46875 0.234375 1.109375 0.4375q0.65625 0.1875 1.515625 0.1875q0.5625 0 1.0 -0.125q0.453125 -0.140625 0.75 -0.390625q0.3125 -0.25 0.46875 -0.609375q0.171875 -0.359375 0.171875 -0.8125q0 -0.515625 -0.28125 -0.875q-0.28125 -0.375 -0.734375 -0.65625q-0.4375 -0.296875 -1.015625 -0.546875q-0.578125 -0.25 -1.1875 -0.53125q-0.609375 -0.28125 -1.1875 -0.640625q-0.5625 -0.359375 -1.015625 -0.84375q-0.453125 -0.5 -0.734375 -1.171875q-0.28125 -0.6875 -0.28125 -1.640625q0 -1.09375 0.40625 -1.921875q0.40625 -0.828125 1.078125 -1.359375q0.6875 -0.546875 1.625 -0.8125q0.9375 -0.28125 1.96875 -0.28125q0.546875 0 1.078125 0.09375q0.546875 0.078125 1.015625 0.21875q0.46875 0.140625 0.828125 0.3125q0.359375 0.171875 0.46875 0.296875q0.125 0.109375 0.171875 0.203125q0.046875 0.078125 0.0625 0.21875q0.03125 0.125 0.046875 0.328125q0.015625 0.203125 0.015625 0.515625q0 0.328125 -0.015625 0.5625q-0.015625 0.234375 -0.0625 0.390625q-0.046875 0.15625 -0.125 0.234375q-0.0625 0.0625 -0.203125 0.0625q-0.125 0 -0.40625 -0.15625q-0.28125 -0.171875 -0.6875 -0.359375q-0.40625 -0.203125 -0.953125 -0.359375q-0.53125 -0.15625 -1.1875 -0.15625q-0.5 0 -0.875 0.125q-0.375 0.125 -0.625 0.34375q-0.25 0.203125 -0.375 0.515625q-0.125 0.296875 -0.125 0.640625q0 0.5 0.265625 0.875q0.28125 0.375 0.75 0.65625q0.46875 0.28125 1.046875 0.546875q0.59375 0.25 1.203125 0.53125q0.609375 0.28125 1.1875 0.640625q0.59375 0.34375 1.046875 0.84375q0.453125 0.5 0.734375 1.171875q0.28125 0.671875 0.28125 1.59375zm5.140625 4.140625q0 0.125 -0.078125 0.21875q-0.0625 0.078125 -0.234375 0.140625q-0.171875 0.0625 -0.453125 0.09375q-0.28125 0.03125 -0.71875 0.03125q-0.4375 0 -0.71875 -0.03125q-0.28125 -0.03125 -0.453125 -0.09375q-0.15625 -0.0625 -0.234375 -0.140625q-0.0625 -0.09375 -0.0625 -0.21875l0 -10.421875q0 -0.125 0.0625 -0.203125q0.078125 -0.09375 0.234375 -0.15625q0.171875 -0.0625 0.453125 -0.09375q0.28125 -0.046875 0.71875 -0.046875q0.4375 0 0.71875 0.046875q0.28125 0.03125 0.453125 0.09375q0.171875 0.0625 0.234375 0.15625q0.078125 0.078125 0.078125 0.203125l0 10.421875zm0.21875 -13.984375q0 0.890625 -0.375 1.234375q-0.359375 0.328125 -1.34375 0.328125q-0.984375 0 -1.34375 -0.328125q-0.34375 -0.328125 -0.34375 -1.171875q0 -0.890625 0.359375 -1.234375q0.359375 -0.359375 1.359375 -0.359375q0.984375 0 1.328125 0.34375q0.359375 0.328125 0.359375 1.1875zm12.707031 13.984375q0 0.125 -0.078125 0.21875q-0.0625 0.078125 -0.234375 0.140625q-0.15625 0.0625 -0.453125 0.09375q-0.28125 0.03125 -0.703125 0.03125q-0.4375 0 -0.734375 -0.03125q-0.28125 -0.03125 -0.453125 -0.09375q-0.15625 -0.0625 -0.234375 -0.140625q-0.0625 -0.09375 -0.0625 -0.21875l0 -5.953125q0 -0.765625 -0.109375 -1.203125q-0.109375 -0.4375 -0.328125 -0.734375q-0.203125 -0.3125 -0.546875 -0.484375q-0.328125 -0.171875 -0.765625 -0.171875q-0.5625 0 -1.140625 0.40625q-0.578125 0.40625 -1.1875 1.203125l0 6.9375q0 0.125 -0.078125 0.21875q-0.0625 0.078125 -0.234375 0.140625q-0.171875 0.0625 -0.453125 0.09375q-0.28125 0.03125 -0.71875 0.03125q-0.4375 0 -0.71875 -0.03125q-0.28125 -0.03125 -0.453125 -0.09375q-0.15625 -0.0625 -0.234375 -0.140625q-0.0625 -0.09375 -0.0625 -0.21875l0 -10.453125q0 -0.109375 0.046875 -0.1875q0.0625 -0.09375 0.21875 -0.15625q0.15625 -0.0625 0.390625 -0.09375q0.234375 -0.03125 0.609375 -0.03125q0.375 0 0.609375 0.03125q0.25 0.03125 0.375 0.09375q0.140625 0.0625 0.203125 0.15625q0.0625 0.078125 0.0625 0.1875l0 1.21875q0.859375 -0.9375 1.75 -1.40625q0.90625 -0.46875 1.875 -0.46875q1.078125 0 1.796875 0.359375q0.734375 0.34375 1.1875 0.953125q0.453125 0.59375 0.65625 1.40625q0.203125 0.796875 0.203125 1.9375l0 6.453125zm12.316406 -9.71875q0 0.5625 -0.140625 0.828125q-0.125 0.265625 -0.3125 0.265625l-1.234375 0q0.265625 0.28125 0.375 0.640625q0.109375 0.359375 0.109375 0.75q0 0.90625 -0.3125 1.625q-0.296875 0.703125 -0.875 1.1875q-0.5625 0.484375 -1.359375 0.75q-0.796875 0.25 -1.78125 0.25q-0.515625 0 -0.96875 -0.125q-0.453125 -0.125 -0.703125 -0.296875q-0.140625 0.15625 -0.25 0.375q-0.109375 0.203125 -0.109375 0.46875q0 0.328125 0.296875 0.546875q0.296875 0.21875 0.84375 0.25l2.53125 0.09375q0.890625 0.03125 1.59375 0.25q0.703125 0.21875 1.171875 0.609375q0.46875 0.390625 0.71875 0.9375q0.265625 0.546875 0.265625 1.265625q0 0.765625 -0.34375 1.453125q-0.34375 0.6875 -1.03125 1.1875q-0.671875 0.5 -1.703125 0.796875q-1.015625 0.296875 -2.390625 0.296875q-1.328125 0 -2.28125 -0.21875q-0.9375 -0.203125 -1.546875 -0.578125q-0.59375 -0.375 -0.875 -0.90625q-0.28125 -0.515625 -0.28125 -1.140625q0 -0.375 0.09375 -0.734375q0.109375 -0.34375 0.296875 -0.671875q0.203125 -0.328125 0.484375 -0.609375q0.28125 -0.296875 0.640625 -0.578125q-0.5 -0.265625 -0.78125 -0.71875q-0.265625 -0.46875 -0.265625 -1.015625q0 -0.703125 0.3125 -1.265625q0.3125 -0.5625 0.8125 -1.03125q-0.40625 -0.40625 -0.65625 -0.96875q-0.234375 -0.578125 -0.234375 -1.4375q0 -0.921875 0.3125 -1.640625q0.328125 -0.71875 0.890625 -1.21875q0.578125 -0.5 1.375 -0.75q0.796875 -0.265625 1.765625 -0.265625q0.484375 0 0.9375 0.0625q0.453125 0.046875 0.84375 0.15625l3.3125 0q0.203125 0 0.328125 0.265625q0.125 0.25 0.125 0.859375zm-3.796875 2.46875q0 -0.84375 -0.46875 -1.3125q-0.46875 -0.46875 -1.3125 -0.46875q-0.4375 0 -0.765625 0.15625q-0.328125 0.140625 -0.546875 0.390625q-0.21875 0.25 -0.328125 0.59375q-0.09375 0.328125 -0.09375 0.6875q0 0.796875 0.46875 1.265625q0.46875 0.453125 1.296875 0.453125q0.4375 0 0.765625 -0.140625q0.328125 -0.140625 0.546875 -0.375q0.21875 -0.25 0.328125 -0.5625q0.109375 -0.328125 0.109375 -0.6875zm0.703125 8.34375q0 -0.515625 -0.421875 -0.796875q-0.421875 -0.296875 -1.171875 -0.3125l-2.09375 -0.0625q-0.296875 0.21875 -0.484375 0.4375q-0.1875 0.203125 -0.296875 0.390625q-0.109375 0.1875 -0.140625 0.359375q-0.03125 0.171875 -0.03125 0.359375q0 0.59375 0.578125 0.890625q0.59375 0.3125 1.671875 0.3125q0.671875 0 1.125 -0.140625q0.46875 -0.125 0.75 -0.359375q0.28125 -0.21875 0.390625 -0.5q0.125 -0.265625 0.125 -0.578125zm8.003906 -1.09375q0 0.125 -0.078125 0.21875q-0.0625 0.078125 -0.234375 0.140625q-0.171875 0.0625 -0.453125 0.09375q-0.28125 0.03125 -0.71875 0.03125q-0.4375 0 -0.71875 -0.03125q-0.28125 -0.03125 -0.453125 -0.09375q-0.15625 -0.0625 -0.234375 -0.140625q-0.0625 -0.09375 -0.0625 -0.21875l0 -15.40625q0 -0.109375 0.0625 -0.203125q0.078125 -0.09375 0.234375 -0.15625q0.171875 -0.078125 0.453125 -0.109375q0.28125 -0.03125 0.71875 -0.03125q0.4375 0 0.71875 0.03125q0.28125 0.03125 0.453125 0.109375q0.171875 0.0625 0.234375 0.15625q0.078125 0.09375 0.078125 0.203125l0 15.40625zm12.597656 -5.53125q0 0.546875 -0.25 0.8125q-0.234375 0.25 -0.65625 0.25l-6.359375 0q0 0.671875 0.15625 1.21875q0.15625 0.53125 0.5 0.921875q0.34375 0.375 0.890625 0.578125q0.546875 0.203125 1.3125 0.203125q0.765625 0 1.34375 -0.109375q0.59375 -0.125 1.015625 -0.25q0.4375 -0.140625 0.71875 -0.25q0.28125 -0.109375 0.453125 -0.109375q0.109375 0 0.171875 0.046875q0.078125 0.03125 0.125 0.140625q0.046875 0.109375 0.0625 0.296875q0.015625 0.1875 0.015625 0.484375q0 0.265625 -0.015625 0.453125q0 0.171875 -0.03125 0.296875q-0.015625 0.125 -0.0625 0.21875q-0.046875 0.09375 -0.125 0.171875q-0.078125 0.078125 -0.421875 0.21875q-0.34375 0.140625 -0.875 0.28125q-0.515625 0.140625 -1.203125 0.234375q-0.671875 0.09375 -1.453125 0.09375q-1.390625 0 -2.4375 -0.34375q-1.046875 -0.359375 -1.75 -1.0625q-0.703125 -0.71875 -1.046875 -1.8125q-0.34375 -1.09375 -0.34375 -2.5625q0 -1.390625 0.359375 -2.5q0.359375 -1.125 1.046875 -1.90625q0.703125 -0.78125 1.6875 -1.1875q0.984375 -0.40625 2.234375 -0.40625q1.3125 0 2.234375 0.390625q0.9375 0.375 1.53125 1.0625q0.609375 0.6875 0.890625 1.625q0.28125 0.9375 0.28125 2.03125l0 0.46875zm-2.859375 -0.84375q0.03125 -1.234375 -0.5 -1.9375q-0.53125 -0.71875 -1.65625 -0.71875q-0.5625 0 -0.984375 0.21875q-0.40625 0.203125 -0.6875 0.5625q-0.265625 0.359375 -0.421875 0.84375q-0.140625 0.484375 -0.15625 1.03125l4.40625 0zm22.710938 6.359375q0 0.109375 -0.078125 0.203125q-0.0625 0.09375 -0.25 0.15625q-0.171875 0.0625 -0.46875 0.09375q-0.28125 0.046875 -0.734375 0.046875q-0.453125 0 -0.75 -0.046875q-0.296875 -0.03125 -0.46875 -0.09375q-0.171875 -0.0625 -0.25 -0.15625q-0.078125 -0.09375 -0.078125 -0.203125l0 -6.125l-5.671875 0l0 6.125q0 0.109375 -0.078125 0.203125q-0.0625 0.09375 -0.234375 0.15625q-0.171875 0.0625 -0.46875 0.09375q-0.296875 0.046875 -0.75 0.046875q-0.453125 0 -0.75 -0.046875q-0.296875 -0.03125 -0.46875 -0.09375q-0.171875 -0.0625 -0.25 -0.15625q-0.078125 -0.09375 -0.078125 -0.203125l0 -14.328125q0 -0.109375 0.078125 -0.203125q0.078125 -0.09375 0.25 -0.15625q0.171875 -0.0625 0.46875 -0.09375q0.296875 -0.03125 0.75 -0.03125q0.453125 0 0.75 0.03125q0.296875 0.03125 0.46875 0.09375q0.171875 0.0625 0.234375 0.15625q0.078125 0.09375 0.078125 0.203125l0 5.578125l5.671875 0l0 -5.578125q0 -0.109375 0.078125 -0.203125q0.078125 -0.09375 0.25 -0.15625q0.171875 -0.0625 0.46875 -0.09375q0.296875 -0.03125 0.75 -0.03125q0.453125 0 0.734375 0.03125q0.296875 0.03125 0.46875 0.09375q0.1875 0.0625 0.25 0.15625q0.078125 0.09375 0.078125 0.203125l0 14.328125zm9.1875 0.421875l-1.265625 3.703125q-0.09375 0.296875 -0.5625 0.421875q-0.46875 0.125 -1.375 0.125q-0.46875 0 -0.75 -0.046875q-0.28125 -0.03125 -0.421875 -0.125q-0.140625 -0.09375 -0.15625 -0.234375q-0.015625 -0.140625 0.078125 -0.34375l1.390625 -3.5q-0.15625 -0.078125 -0.28125 -0.21875q-0.125 -0.140625 -0.171875 -0.3125l-3.609375 -9.609375q-0.140625 -0.40625 -0.140625 -0.625q0 -0.21875 0.140625 -0.34375q0.140625 -0.125 0.46875 -0.171875q0.328125 -0.046875 0.890625 -0.046875q0.5 0 0.78125 0.03125q0.296875 0.015625 0.453125 0.09375q0.171875 0.0625 0.25 0.203125q0.09375 0.140625 0.171875 0.421875l2.46875 6.984375l0.03125 0l2.25 -7.125q0.0625 -0.3125 0.171875 -0.40625q0.125 -0.109375 0.375 -0.15625q0.265625 -0.046875 0.90625 -0.046875q0.5 0 0.828125 0.046875q0.34375 0.046875 0.5 0.1875q0.15625 0.125 0.15625 0.34375q0 0.21875 -0.09375 0.5l-3.484375 10.25zm15.8359375 -5.78125q0 1.390625 -0.296875 2.515625q-0.296875 1.125 -0.875 1.90625q-0.578125 0.78125 -1.4375 1.203125q-0.84375 0.421875 -1.953125 0.421875q-0.453125 0 -0.84375 -0.09375q-0.375 -0.078125 -0.734375 -0.25q-0.34375 -0.1875 -0.703125 -0.453125q-0.34375 -0.28125 -0.71875 -0.640625l0 4.921875q0 0.125 -0.078125 0.21875q-0.0625 0.09375 -0.234375 0.15625q-0.171875 0.0625 -0.453125 0.09375q-0.28125 0.03125 -0.71875 0.03125q-0.4375 0 -0.71875 -0.03125q-0.28125 -0.03125 -0.453125 -0.09375q-0.15625 -0.0625 -0.234375 -0.15625q-0.0625 -0.09375 -0.0625 -0.21875l0 -14.609375q0 -0.109375 0.046875 -0.1875q0.0625 -0.09375 0.203125 -0.15625q0.15625 -0.0625 0.390625 -0.09375q0.25 -0.03125 0.609375 -0.03125q0.34375 0 0.578125 0.03125q0.25 0.03125 0.390625 0.09375q0.15625 0.0625 0.203125 0.15625q0.0625 0.078125 0.0625 0.1875l0 1.234375q0.46875 -0.46875 0.90625 -0.828125q0.4375 -0.359375 0.890625 -0.59375q0.453125 -0.234375 0.9375 -0.34375q0.5 -0.125 1.046875 -0.125q1.140625 0 1.953125 0.453125q0.8125 0.4375 1.3125 1.234375q0.515625 0.78125 0.75 1.828125q0.234375 1.03125 0.234375 2.21875zm-3.0625 0.21875q0 -0.671875 -0.109375 -1.28125q-0.09375 -0.625 -0.34375 -1.09375q-0.234375 -0.484375 -0.625 -0.765625q-0.390625 -0.296875 -0.984375 -0.296875q-0.28125 0 -0.578125 0.09375q-0.28125 0.078125 -0.578125 0.28125q-0.296875 0.203125 -0.625 0.515625q-0.3125 0.3125 -0.65625 0.78125l0 3.453125q0.609375 0.78125 1.171875 1.21875q0.5625 0.421875 1.171875 0.421875q0.578125 0 0.984375 -0.296875q0.40625 -0.296875 0.65625 -0.765625q0.265625 -0.484375 0.390625 -1.078125q0.125 -0.59375 0.125 -1.1875zm15.082031 -0.375q0 0.546875 -0.25 0.8125q-0.234375 0.25 -0.65625 0.25l-6.359375 0q0 0.671875 0.15625 1.21875q0.15625 0.53125 0.5 0.921875q0.34375 0.375 0.890625 0.578125q0.546875 0.203125 1.3125 0.203125q0.765625 0 1.34375 -0.109375q0.59375 -0.125 1.015625 -0.25q0.4375 -0.140625 0.71875 -0.25q0.28125 -0.109375 0.453125 -0.109375q0.109375 0 0.171875 0.046875q0.078125 0.03125 0.125 0.140625q0.046875 0.109375 0.0625 0.296875q0.015625 0.1875 0.015625 0.484375q0 0.265625 -0.015625 0.453125q0 0.171875 -0.03125 0.296875q-0.015625 0.125 -0.0625 0.21875q-0.046875 0.09375 -0.125 0.171875q-0.078125 0.078125 -0.421875 0.21875q-0.34375 0.140625 -0.875 0.28125q-0.515625 0.140625 -1.203125 0.234375q-0.671875 0.09375 -1.453125 0.09375q-1.390625 0 -2.4375 -0.34375q-1.046875 -0.359375 -1.75 -1.0625q-0.703125 -0.71875 -1.046875 -1.8125q-0.34375 -1.09375 -0.34375 -2.5625q0 -1.390625 0.359375 -2.5q0.359375 -1.125 1.046875 -1.90625q0.703125 -0.78125 1.6875 -1.1875q0.984375 -0.40625 2.234375 -0.40625q1.3125 0 2.234375 0.390625q0.9375 0.375 1.53125 1.0625q0.609375 0.6875 0.890625 1.625q0.28125 0.9375 0.28125 2.03125l0 0.46875zm-2.859375 -0.84375q0.03125 -1.234375 -0.5 -1.9375q-0.53125 -0.71875 -1.65625 -0.71875q-0.5625 0 -0.984375 0.21875q-0.40625 0.203125 -0.6875 0.5625q-0.265625 0.359375 -0.421875 0.84375q-0.140625 0.484375 -0.15625 1.03125l4.40625 0zm11.988281 -3.09375q0 0.421875 -0.03125 0.6875q-0.015625 0.265625 -0.0625 0.421875q-0.046875 0.15625 -0.125 0.21875q-0.0625 0.046875 -0.1875 0.046875q-0.09375 0 -0.21875 -0.03125q-0.109375 -0.046875 -0.265625 -0.09375q-0.140625 -0.046875 -0.3125 -0.078125q-0.171875 -0.046875 -0.390625 -0.046875q-0.234375 0 -0.484375 0.09375q-0.25 0.09375 -0.515625 0.3125q-0.265625 0.203125 -0.546875 0.5625q-0.28125 0.34375 -0.609375 0.859375l0 6.515625q0 0.125 -0.078125 0.21875q-0.0625 0.078125 -0.234375 0.140625q-0.171875 0.0625 -0.453125 0.09375q-0.28125 0.03125 -0.71875 0.03125q-0.4375 0 -0.71875 -0.03125q-0.28125 -0.03125 -0.453125 -0.09375q-0.15625 -0.0625 -0.234375 -0.140625q-0.0625 -0.09375 -0.0625 -0.21875l0 -10.453125q0 -0.109375 0.046875 -0.1875q0.0625 -0.09375 0.21875 -0.15625q0.15625 -0.0625 0.390625 -0.09375q0.234375 -0.03125 0.609375 -0.03125q0.375 0 0.609375 0.03125q0.25 0.03125 0.375 0.09375q0.140625 0.0625 0.203125 0.15625q0.0625 0.078125 0.0625 0.1875l0 1.3125q0.40625 -0.59375 0.765625 -0.96875q0.375 -0.390625 0.703125 -0.609375q0.328125 -0.21875 0.65625 -0.296875q0.328125 -0.09375 0.65625 -0.09375q0.140625 0 0.3125 0.015625q0.1875 0.015625 0.375 0.0625q0.1875 0.03125 0.328125 0.09375q0.140625 0.046875 0.203125 0.109375q0.0625 0.046875 0.09375 0.125q0.03125 0.0625 0.046875 0.1875q0.03125 0.125 0.03125 0.375q0.015625 0.25 0.015625 0.671875zm8.015625 8.4375q0 0.515625 -0.078125 0.796875q-0.0625 0.28125 -0.171875 0.390625q-0.09375 0.109375 -0.296875 0.203125q-0.203125 0.078125 -0.484375 0.140625q-0.28125 0.078125 -0.609375 0.109375q-0.3125 0.03125 -0.640625 0.03125q-0.875 0 -1.53125 -0.234375q-0.640625 -0.21875 -1.0625 -0.671875q-0.421875 -0.46875 -0.625 -1.171875q-0.1875 -0.703125 -0.1875 -1.65625l0 -5.359375l-1.25 0q-0.234375 0 -0.359375 -0.265625q-0.109375 -0.28125 -0.109375 -0.9375q0 -0.328125 0.03125 -0.5625q0.03125 -0.234375 0.09375 -0.375q0.0625 -0.140625 0.140625 -0.1875q0.09375 -0.0625 0.203125 -0.0625l1.25 0l0 -2.328125q0 -0.125 0.0625 -0.21875q0.0625 -0.09375 0.234375 -0.15625q0.171875 -0.0625 0.453125 -0.09375q0.296875 -0.03125 0.71875 -0.03125q0.421875 0 0.703125 0.03125q0.296875 0.03125 0.453125 0.09375q0.171875 0.0625 0.234375 0.15625q0.078125 0.09375 0.078125 0.21875l0 2.328125l2.28125 0q0.109375 0 0.1875 0.0625q0.09375 0.046875 0.15625 0.1875q0.0625 0.140625 0.09375 0.375q0.03125 0.234375 0.03125 0.5625q0 0.65625 -0.125 0.9375q-0.109375 0.265625 -0.34375 0.265625l-2.28125 0l0 4.90625q0 0.859375 0.265625 1.296875q0.28125 0.421875 0.96875 0.421875q0.234375 0 0.421875 -0.046875q0.1875 -0.046875 0.328125 -0.09375q0.15625 -0.046875 0.25 -0.09375q0.09375 -0.046875 0.1875 -0.046875q0.0625 0 0.125 0.046875q0.0625 0.046875 0.09375 0.171875q0.046875 0.109375 0.078125 0.328125q0.03125 0.203125 0.03125 0.53125zm12.1171875 1.03125q0 0.125 -0.078125 0.21875q-0.0625 0.078125 -0.234375 0.140625q-0.15625 0.0625 -0.453125 0.09375q-0.28125 0.03125 -0.703125 0.03125q-0.4375 0 -0.734375 -0.03125q-0.28125 -0.03125 -0.453125 -0.09375q-0.15625 -0.0625 -0.234375 -0.140625q-0.0625 -0.09375 -0.0625 -0.21875l0 -5.953125q0 -0.765625 -0.109375 -1.203125q-0.109375 -0.4375 -0.328125 -0.734375q-0.203125 -0.3125 -0.546875 -0.484375q-0.328125 -0.171875 -0.765625 -0.171875q-0.5625 0 -1.140625 0.40625q-0.578125 0.40625 -1.1875 1.203125l0 6.9375q0 0.125 -0.078125 0.21875q-0.0625 0.078125 -0.234375 0.140625q-0.171875 0.0625 -0.453125 0.09375q-0.28125 0.03125 -0.71875 0.03125q-0.4375 0 -0.71875 -0.03125q-0.28125 -0.03125 -0.453125 -0.09375q-0.15625 -0.0625 -0.234375 -0.140625q-0.0625 -0.09375 -0.0625 -0.21875l0 -15.40625q0 -0.109375 0.0625 -0.203125q0.078125 -0.09375 0.234375 -0.15625q0.171875 -0.078125 0.453125 -0.109375q0.28125 -0.03125 0.71875 -0.03125q0.4375 0 0.71875 0.03125q0.28125 0.03125 0.453125 0.109375q0.171875 0.0625 0.234375 0.15625q0.078125 0.09375 0.078125 0.203125l0 5.78125q0.75 -0.75 1.546875 -1.109375q0.796875 -0.375 1.640625 -0.375q1.078125 0 1.796875 0.359375q0.734375 0.34375 1.1875 0.953125q0.453125 0.609375 0.65625 1.421875q0.203125 0.8125 0.203125 1.96875l0 6.40625zm9.597656 -9.46875q0 0.421875 -0.03125 0.6875q-0.015625 0.265625 -0.0625 0.421875q-0.046875 0.15625 -0.125 0.21875q-0.0625 0.046875 -0.1875 0.046875q-0.09375 0 -0.21875 -0.03125q-0.109375 -0.046875 -0.265625 -0.09375q-0.140625 -0.046875 -0.3125 -0.078125q-0.171875 -0.046875 -0.390625 -0.046875q-0.234375 0 -0.484375 0.09375q-0.25 0.09375 -0.515625 0.3125q-0.265625 0.203125 -0.546875 0.5625q-0.28125 0.34375 -0.609375 0.859375l0 6.515625q0 0.125 -0.078125 0.21875q-0.0625 0.078125 -0.234375 0.140625q-0.171875 0.0625 -0.453125 0.09375q-0.28125 0.03125 -0.71875 0.03125q-0.4375 0 -0.71875 -0.03125q-0.28125 -0.03125 -0.453125 -0.09375q-0.15625 -0.0625 -0.234375 -0.140625q-0.0625 -0.09375 -0.0625 -0.21875l0 -10.453125q0 -0.109375 0.046875 -0.1875q0.0625 -0.09375 0.21875 -0.15625q0.15625 -0.0625 0.390625 -0.09375q0.234375 -0.03125 0.609375 -0.03125q0.375 0 0.609375 0.03125q0.25 0.03125 0.375 0.09375q0.140625 0.0625 0.203125 0.15625q0.0625 0.078125 0.0625 0.1875l0 1.3125q0.40625 -0.59375 0.765625 -0.96875q0.375 -0.390625 0.703125 -0.609375q0.328125 -0.21875 0.65625 -0.296875q0.328125 -0.09375 0.65625 -0.09375q0.140625 0 0.3125 0.015625q0.1875 0.015625 0.375 0.0625q0.1875 0.03125 0.328125 0.09375q0.140625 0.046875 0.203125 0.109375q0.0625 0.046875 0.09375 0.125q0.03125 0.0625 0.046875 0.1875q0.03125 0.125 0.03125 0.375q0.015625 0.25 0.015625 0.671875zm11.484375 3.9375q0 0.546875 -0.25 0.8125q-0.234375 0.25 -0.65625 0.25l-6.359375 0q0 0.671875 0.15625 1.21875q0.15625 0.53125 0.5 0.921875q0.34375 0.375 0.890625 0.578125q0.546875 0.203125 1.3125 0.203125q0.765625 0 1.34375 -0.109375q0.59375 -0.125 1.015625 -0.25q0.4375 -0.140625 0.71875 -0.25q0.28125 -0.109375 0.453125 -0.109375q0.109375 0 0.171875 0.046875q0.078125 0.03125 0.125 0.140625q0.046875 0.109375 0.0625 0.296875q0.015625 0.1875 0.015625 0.484375q0 0.265625 -0.015625 0.453125q0 0.171875 -0.03125 0.296875q-0.015625 0.125 -0.0625 0.21875q-0.046875 0.09375 -0.125 0.171875q-0.078125 0.078125 -0.421875 0.21875q-0.34375 0.140625 -0.875 0.28125q-0.515625 0.140625 -1.203125 0.234375q-0.671875 0.09375 -1.453125 0.09375q-1.390625 0 -2.4375 -0.34375q-1.046875 -0.359375 -1.75 -1.0625q-0.703125 -0.71875 -1.046875 -1.8125q-0.34375 -1.09375 -0.34375 -2.5625q0 -1.390625 0.359375 -2.5q0.359375 -1.125 1.046875 -1.90625q0.703125 -0.78125 1.6875 -1.1875q0.984375 -0.40625 2.234375 -0.40625q1.3125 0 2.234375 0.390625q0.9375 0.375 1.53125 1.0625q0.609375 0.6875 0.890625 1.625q0.28125 0.9375 0.28125 2.03125l0 0.46875zm-2.859375 -0.84375q0.03125 -1.234375 -0.5 -1.9375q-0.53125 -0.71875 -1.65625 -0.71875q-0.5625 0 -0.984375 0.21875q-0.40625 0.203125 -0.6875 0.5625q-0.265625 0.359375 -0.421875 0.84375q-0.140625 0.484375 -0.15625 1.03125l4.40625 0zm14.191406 6.421875q0 0.15625 -0.125 0.25q-0.109375 0.09375 -0.375 0.140625q-0.25 0.046875 -0.734375 0.046875q-0.53125 0 -0.78125 -0.046875q-0.234375 -0.046875 -0.328125 -0.140625q-0.09375 -0.09375 -0.09375 -0.25l0 -0.84375q-0.65625 0.703125 -1.484375 1.09375q-0.8125 0.375 -1.828125 0.375q-0.828125 0 -1.53125 -0.21875q-0.6875 -0.21875 -1.203125 -0.640625q-0.515625 -0.421875 -0.796875 -1.046875q-0.28125 -0.640625 -0.28125 -1.484375q0 -0.921875 0.359375 -1.59375q0.359375 -0.671875 1.0625 -1.109375q0.71875 -0.4375 1.765625 -0.640625q1.0625 -0.21875 2.453125 -0.21875l1.015625 0l0 -0.640625q0 -0.484375 -0.09375 -0.859375q-0.09375 -0.375 -0.328125 -0.609375q-0.234375 -0.25 -0.609375 -0.359375q-0.375 -0.125 -0.9375 -0.125q-0.75 0 -1.328125 0.171875q-0.578125 0.15625 -1.03125 0.359375q-0.4375 0.1875 -0.734375 0.359375q-0.296875 0.15625 -0.484375 0.15625q-0.125 0 -0.234375 -0.078125q-0.09375 -0.078125 -0.15625 -0.234375q-0.0625 -0.15625 -0.109375 -0.375q-0.03125 -0.21875 -0.03125 -0.484375q0 -0.375 0.0625 -0.578125q0.0625 -0.21875 0.21875 -0.375q0.171875 -0.171875 0.578125 -0.375q0.40625 -0.21875 0.953125 -0.390625q0.5625 -0.171875 1.203125 -0.28125q0.65625 -0.109375 1.34375 -0.109375q1.234375 0 2.109375 0.234375q0.875 0.234375 1.4375 0.734375q0.5625 0.5 0.8125 1.296875q0.265625 0.78125 0.265625 1.859375l0 7.03125zm-2.90625 -4.484375l-1.125 0q-0.703125 0 -1.21875 0.109375q-0.5 0.109375 -0.8125 0.328125q-0.3125 0.203125 -0.46875 0.5q-0.140625 0.296875 -0.140625 0.6875q0 0.65625 0.40625 1.03125q0.421875 0.375 1.15625 0.375q0.625 0 1.140625 -0.3125q0.53125 -0.328125 1.0625 -0.9375l0 -1.78125zm15.753906 4.4375q0 0.140625 -0.0625 0.234375q-0.046875 0.078125 -0.1875 0.140625q-0.140625 0.0625 -0.390625 0.078125q-0.234375 0.03125 -0.59375 0.03125q-0.375 0 -0.609375 -0.03125q-0.234375 -0.015625 -0.375 -0.078125q-0.140625 -0.0625 -0.21875 -0.140625q-0.0625 -0.09375 -0.0625 -0.234375l0 -1.15625q-0.796875 0.875 -1.6875 1.359375q-0.890625 0.46875 -1.96875 0.46875q-1.1875 0 -2.015625 -0.453125q-0.828125 -0.46875 -1.359375 -1.25q-0.515625 -0.796875 -0.75 -1.84375q-0.234375 -1.046875 -0.234375 -2.203125q0 -1.390625 0.296875 -2.5q0.3125 -1.125 0.875 -1.90625q0.578125 -0.78125 1.4375 -1.203125q0.859375 -0.421875 1.96875 -0.421875q0.875 0 1.59375 0.359375q0.71875 0.34375 1.421875 1.046875l0 -5.671875q0 -0.109375 0.0625 -0.203125q0.0625 -0.09375 0.234375 -0.15625q0.171875 -0.0625 0.453125 -0.09375q0.28125 -0.046875 0.703125 -0.046875q0.4375 0 0.71875 0.046875q0.28125 0.03125 0.4375 0.09375q0.171875 0.0625 0.234375 0.15625q0.078125 0.09375 0.078125 0.203125l0 15.375zm-2.921875 -6.984375q-0.640625 -0.796875 -1.21875 -1.21875q-0.578125 -0.421875 -1.21875 -0.421875q-0.5625 0 -0.984375 0.296875q-0.421875 0.28125 -0.671875 0.765625q-0.25 0.484375 -0.375 1.078125q-0.125 0.578125 -0.125 1.203125q0 0.65625 0.109375 1.28125q0.109375 0.625 0.34375 1.109375q0.25 0.484375 0.640625 0.78125q0.40625 0.28125 1.015625 0.28125q0.296875 0 0.578125 -0.078125q0.296875 -0.09375 0.59375 -0.28125q0.296875 -0.203125 0.609375 -0.53125q0.328125 -0.328125 0.703125 -0.796875l0 -3.46875zm15.550781 1.453125q0 0.546875 -0.25 0.8125q-0.234375 0.25 -0.65625 0.25l-6.359375 0q0 0.671875 0.15625 1.21875q0.15625 0.53125 0.5 0.921875q0.34375 0.375 0.890625 0.578125q0.546875 0.203125 1.3125 0.203125q0.765625 0 1.34375 -0.109375q0.59375 -0.125 1.015625 -0.25q0.4375 -0.140625 0.71875 -0.25q0.28125 -0.109375 0.453125 -0.109375q0.109375 0 0.171875 0.046875q0.078125 0.03125 0.125 0.140625q0.046875 0.109375 0.0625 0.296875q0.015625 0.1875 0.015625 0.484375q0 0.265625 -0.015625 0.453125q0 0.171875 -0.03125 0.296875q-0.015625 0.125 -0.0625 0.21875q-0.046875 0.09375 -0.125 0.171875q-0.078125 0.078125 -0.421875 0.21875q-0.34375 0.140625 -0.875 0.28125q-0.515625 0.140625 -1.203125 0.234375q-0.671875 0.09375 -1.453125 0.09375q-1.390625 0 -2.4375 -0.34375q-1.046875 -0.359375 -1.75 -1.0625q-0.703125 -0.71875 -1.046875 -1.8125q-0.34375 -1.09375 -0.34375 -2.5625q0 -1.390625 0.359375 -2.5q0.359375 -1.125 1.046875 -1.90625q0.703125 -0.78125 1.6875 -1.1875q0.984375 -0.40625 2.234375 -0.40625q1.3125 0 2.234375 0.390625q0.9375 0.375 1.53125 1.0625q0.609375 0.6875 0.890625 1.625q0.28125 0.9375 0.28125 2.03125l0 0.46875zm-2.859375 -0.84375q0.03125 -1.234375 -0.5 -1.9375q-0.53125 -0.71875 -1.65625 -0.71875q-0.5625 0 -0.984375 0.21875q-0.40625 0.203125 -0.6875 0.5625q-0.265625 0.359375 -0.421875 0.84375q-0.140625 0.484375 -0.15625 1.03125l4.40625 0zm15.191406 6.375q0 0.140625 -0.0625 0.234375q-0.046875 0.078125 -0.1875 0.140625q-0.140625 0.0625 -0.390625 0.078125q-0.234375 0.03125 -0.59375 0.03125q-0.375 0 -0.609375 -0.03125q-0.234375 -0.015625 -0.375 -0.078125q-0.140625 -0.0625 -0.21875 -0.140625q-0.0625 -0.09375 -0.0625 -0.234375l0 -1.15625q-0.796875 0.875 -1.6875 1.359375q-0.890625 0.46875 -1.96875 0.46875q-1.1875 0 -2.015625 -0.453125q-0.828125 -0.46875 -1.359375 -1.25q-0.515625 -0.796875 -0.75 -1.84375q-0.234375 -1.046875 -0.234375 -2.203125q0 -1.390625 0.296875 -2.5q0.3125 -1.125 0.875 -1.90625q0.578125 -0.78125 1.4375 -1.203125q0.859375 -0.421875 1.96875 -0.421875q0.875 0 1.59375 0.359375q0.71875 0.34375 1.421875 1.046875l0 -5.671875q0 -0.109375 0.0625 -0.203125q0.0625 -0.09375 0.234375 -0.15625q0.171875 -0.0625 0.453125 -0.09375q0.28125 -0.046875 0.703125 -0.046875q0.4375 0 0.71875 0.046875q0.28125 0.03125 0.4375 0.09375q0.171875 0.0625 0.234375 0.15625q0.078125 0.09375 0.078125 0.203125l0 15.375zm-2.921875 -6.984375q-0.640625 -0.796875 -1.21875 -1.21875q-0.578125 -0.421875 -1.21875 -0.421875q-0.5625 0 -0.984375 0.296875q-0.421875 0.28125 -0.671875 0.765625q-0.25 0.484375 -0.375 1.078125q-0.125 0.578125 -0.125 1.203125q0 0.65625 0.109375 1.28125q0.109375 0.625 0.34375 1.109375q0.25 0.484375 0.640625 0.78125q0.40625 0.28125 1.015625 0.28125q0.296875 0 0.578125 -0.078125q0.296875 -0.09375 0.59375 -0.28125q0.296875 -0.203125 0.609375 -0.53125q0.328125 -0.328125 0.703125 -0.796875l0 -3.46875zm21.976562 5.09375q0 0.296875 -0.015625 0.5q-0.015625 0.203125 -0.0625 0.359375q-0.03125 0.140625 -0.09375 0.25q-0.046875 0.09375 -0.1875 0.234375q-0.125 0.125 -0.5 0.34375q-0.359375 0.203125 -0.890625 0.40625q-0.53125 0.1875 -1.21875 0.3125q-0.6875 0.140625 -1.484375 0.140625q-1.5625 0 -2.8125 -0.484375q-1.25 -0.484375 -2.140625 -1.4375q-0.875 -0.953125 -1.34375 -2.375q-0.46875 -1.4375 -0.46875 -3.34375q0 -1.921875 0.515625 -3.421875q0.515625 -1.5 1.4375 -2.515625q0.9375 -1.03125 2.234375 -1.546875q1.296875 -0.53125 2.84375 -0.53125q0.640625 0 1.21875 0.109375q0.59375 0.09375 1.09375 0.265625q0.5 0.171875 0.890625 0.390625q0.40625 0.21875 0.5625 0.390625q0.15625 0.15625 0.203125 0.265625q0.0625 0.09375 0.09375 0.265625q0.046875 0.15625 0.0625 0.390625q0.015625 0.21875 0.015625 0.546875q0 0.34375 -0.03125 0.59375q-0.015625 0.25 -0.078125 0.40625q-0.046875 0.140625 -0.140625 0.21875q-0.078125 0.0625 -0.1875 0.0625q-0.171875 0 -0.4375 -0.203125q-0.265625 -0.203125 -0.703125 -0.453125q-0.421875 -0.25 -1.015625 -0.453125q-0.59375 -0.21875 -1.40625 -0.21875q-0.90625 0 -1.625 0.375q-0.703125 0.375 -1.203125 1.0625q-0.5 0.671875 -0.765625 1.65625q-0.25 0.96875 -0.25 2.1875q0 1.328125 0.28125 2.3125q0.28125 0.984375 0.78125 1.625q0.515625 0.625 1.234375 0.9375q0.71875 0.296875 1.625 0.296875q0.8125 0 1.40625 -0.1875q0.609375 -0.1875 1.03125 -0.421875q0.4375 -0.234375 0.703125 -0.421875q0.28125 -0.1875 0.4375 -0.1875q0.109375 0 0.171875 0.046875q0.078125 0.046875 0.125 0.1875q0.046875 0.140625 0.0625 0.390625q0.03125 0.25 0.03125 0.671875zm12.609375 -3.4375q0 1.34375 -0.359375 2.453125q-0.34375 1.09375 -1.0625 1.890625q-0.703125 0.796875 -1.78125 1.234375q-1.078125 0.421875 -2.53125 0.421875q-1.390625 0 -2.421875 -0.375q-1.03125 -0.390625 -1.71875 -1.125q-0.671875 -0.75 -1.0 -1.828125q-0.328125 -1.078125 -0.328125 -2.453125q0 -1.34375 0.359375 -2.453125q0.359375 -1.109375 1.0625 -1.890625q0.71875 -0.796875 1.796875 -1.21875q1.078125 -0.4375 2.515625 -0.4375q1.40625 0 2.4375 0.375q1.03125 0.375 1.703125 1.125q0.671875 0.734375 1.0 1.8125q0.328125 1.078125 0.328125 2.46875zm-3.03125 0.125q0 -0.78125 -0.125 -1.421875q-0.125 -0.65625 -0.421875 -1.140625q-0.28125 -0.484375 -0.78125 -0.75q-0.484375 -0.265625 -1.21875 -0.265625q-0.65625 0 -1.15625 0.25q-0.484375 0.234375 -0.796875 0.703125q-0.3125 0.453125 -0.484375 1.109375q-0.15625 0.640625 -0.15625 1.46875q0 0.78125 0.125 1.4375q0.140625 0.640625 0.421875 1.125q0.296875 0.484375 0.78125 0.75q0.5 0.25 1.21875 0.25q0.671875 0 1.15625 -0.234375q0.5 -0.234375 0.8125 -0.6875q0.3125 -0.46875 0.46875 -1.109375q0.15625 -0.65625 0.15625 -1.484375zm12.074219 -4.265625q0 0.421875 -0.03125 0.6875q-0.015625 0.265625 -0.0625 0.421875q-0.046875 0.15625 -0.125 0.21875q-0.0625 0.046875 -0.1875 0.046875q-0.09375 0 -0.21875 -0.03125q-0.109375 -0.046875 -0.265625 -0.09375q-0.140625 -0.046875 -0.3125 -0.078125q-0.171875 -0.046875 -0.390625 -0.046875q-0.234375 0 -0.484375 0.09375q-0.25 0.09375 -0.515625 0.3125q-0.265625 0.203125 -0.546875 0.5625q-0.28125 0.34375 -0.609375 0.859375l0 6.515625q0 0.125 -0.078125 0.21875q-0.0625 0.078125 -0.234375 0.140625q-0.171875 0.0625 -0.453125 0.09375q-0.28125 0.03125 -0.71875 0.03125q-0.4375 0 -0.71875 -0.03125q-0.28125 -0.03125 -0.453125 -0.09375q-0.15625 -0.0625 -0.234375 -0.140625q-0.0625 -0.09375 -0.0625 -0.21875l0 -10.453125q0 -0.109375 0.046875 -0.1875q0.0625 -0.09375 0.21875 -0.15625q0.15625 -0.0625 0.390625 -0.09375q0.234375 -0.03125 0.609375 -0.03125q0.375 0 0.609375 0.03125q0.25 0.03125 0.375 0.09375q0.140625 0.0625 0.203125 0.15625q0.0625 0.078125 0.0625 0.1875l0 1.3125q0.40625 -0.59375 0.765625 -0.96875q0.375 -0.390625 0.703125 -0.609375q0.328125 -0.21875 0.65625 -0.296875q0.328125 -0.09375 0.65625 -0.09375q0.140625 0 0.3125 0.015625q0.1875 0.015625 0.375 0.0625q0.1875 0.03125 0.328125 0.09375q0.140625 0.046875 0.203125 0.109375q0.0625 0.046875 0.09375 0.125q0.03125 0.0625 0.046875 0.1875q0.03125 0.125 0.03125 0.375q0.015625 0.25 0.015625 0.671875zm11.484375 3.9375q0 0.546875 -0.25 0.8125q-0.234375 0.25 -0.65625 0.25l-6.359375 0q0 0.671875 0.15625 1.21875q0.15625 0.53125 0.5 0.921875q0.34375 0.375 0.890625 0.578125q0.546875 0.203125 1.3125 0.203125q0.765625 0 1.34375 -0.109375q0.59375 -0.125 1.015625 -0.25q0.4375 -0.140625 0.71875 -0.25q0.28125 -0.109375 0.453125 -0.109375q0.109375 0 0.171875 0.046875q0.078125 0.03125 0.125 0.140625q0.046875 0.109375 0.0625 0.296875q0.015625 0.1875 0.015625 0.484375q0 0.265625 -0.015625 0.453125q0 0.171875 -0.03125 0.296875q-0.015625 0.125 -0.0625 0.21875q-0.046875 0.09375 -0.125 0.171875q-0.078125 0.078125 -0.421875 0.21875q-0.34375 0.140625 -0.875 0.28125q-0.515625 0.140625 -1.203125 0.234375q-0.671875 0.09375 -1.453125 0.09375q-1.390625 0 -2.4375 -0.34375q-1.046875 -0.359375 -1.75 -1.0625q-0.703125 -0.71875 -1.046875 -1.8125q-0.34375 -1.09375 -0.34375 -2.5625q0 -1.390625 0.359375 -2.5q0.359375 -1.125 1.046875 -1.90625q0.703125 -0.78125 1.6875 -1.1875q0.984375 -0.40625 2.234375 -0.40625q1.3125 0 2.234375 0.390625q0.9375 0.375 1.53125 1.0625q0.609375 0.6875 0.890625 1.625q0.28125 0.9375 0.28125 2.03125l0 0.46875zm-2.859375 -0.84375q0.03125 -1.234375 -0.5 -1.9375q-0.53125 -0.71875 -1.65625 -0.71875q-0.5625 0 -0.984375 0.21875q-0.40625 0.203125 -0.6875 0.5625q-0.265625 0.359375 -0.421875 0.84375q-0.140625 0.484375 -0.15625 1.03125l4.40625 0z" fill-rule="nonzero"></path></g></svg>

